<svg xmlns="http://www.w3.org/2000/svg" xmlns:xlink="http://www.w3.org/1999/xlink" width="1024" zoomAndPan="magnify" viewBox="0 0 768 767.999994" height="1024" preserveAspectRatio="xMidYMid meet" version="1.0"><defs><clipPath id="03b1a6be36"><path d="M 101 36 L 716.304688 36 L 716.304688 732 L 101 732 Z M 101 36 " clip-rule="nonzero"/></clipPath><clipPath id="2bd1302dba"><path d="M 113.265625 404.835938 L 679.839844 728.59375 C 687.382812 732.902344 696.648438 732.871094 704.164062 728.511719 C 711.679688 724.152344 716.304688 716.121094 716.304688 707.429688 L 716.304688 60.566406 C 716.304688 51.878906 711.679688 43.847656 704.164062 39.488281 C 696.648438 35.125 687.382812 35.09375 679.839844 39.40625 L 113.265625 363.160156 C 105.789062 367.433594 101.171875 375.386719 101.171875 384 C 101.171875 392.613281 105.789062 400.5625 113.265625 404.835938 " clip-rule="nonzero"/></clipPath><clipPath id="c75ec01d77"><path d="M 100 36 L 716.304688 36 L 716.304688 732 L 100 732 Z M 100 36 " clip-rule="nonzero"/></clipPath><clipPath id="73687867fc"><path d="M 113.035156 404.644531 L 679.824219 728.238281 C 687.371094 732.546875 696.640625 732.515625 704.160156 728.15625 C 711.675781 723.800781 716.304688 715.773438 716.304688 707.085938 L 716.304688 60.546875 C 716.304688 51.863281 711.675781 43.835938 704.160156 39.476562 C 696.640625 35.117188 687.371094 35.085938 679.824219 39.394531 L 113.035156 362.988281 C 105.554688 367.261719 100.9375 375.210938 100.9375 383.816406 C 100.9375 392.425781 105.554688 400.375 113.035156 404.644531 " clip-rule="nonzero"/></clipPath></defs><g clip-path="url(#03b1a6be36)"><g clip-path="url(#2bd1302dba)"><path fill="#37414f" d="M 716.304688 18.566406 L 716.304688 749.429688 L 76.800781 749.429688 L 76.800781 18.566406 Z M 716.304688 18.566406 " fill-opacity="1" fill-rule="nonzero"/></g></g><g clip-path="url(#c75ec01d77)"><g clip-path="url(#73687867fc)"><path stroke-linecap="butt" transform="matrix(0.000000000000000046, 0.749627, -0.750289, 0.000000000000000046, 716.304568, 18.56834)" fill="none" stroke-linejoin="miter" d="M 515.024276 804.049908 L 946.697197 48.621761 C 952.444845 38.56313 952.403158 26.208508 946.587767 16.186322 C 940.777587 6.169342 930.069139 -0.000159861 918.480045 -0.000159861 L 55.999217 -0.000159861 C 44.415334 -0.000159861 33.706886 6.169342 27.891495 16.186322 C 22.076104 26.208508 22.034417 38.56313 27.782066 48.621761 L 459.454986 804.049908 C 465.155736 814.020031 475.759966 820.173914 487.239631 820.173914 C 498.724507 820.173914 509.328737 814.020031 515.024276 804.049908 " stroke="#000000" stroke-width="74" stroke-opacity="1" stroke-miterlimit="4"/></g></g></svg>