<svg xmlns="http://www.w3.org/2000/svg" xmlns:xlink="http://www.w3.org/1999/xlink" width="500" zoomAndPan="magnify" viewBox="0 0 375 374.999991" height="500" preserveAspectRatio="xMidYMid meet" version="1.0"><defs><clipPath id="5bd0c4203a"><path d="M 43 17 L 347.589844 17 L 347.589844 358 L 43 358 Z M 43 17 " clip-rule="nonzero"/></clipPath><clipPath id="62d2cd4cf3"><path d="M 55.933594 208.335938 L 311.125 354.164062 C 318.667969 358.472656 327.9375 358.441406 335.449219 354.082031 C 342.964844 349.71875 347.589844 341.6875 347.589844 333 L 347.589844 42 C 347.589844 33.3125 342.964844 25.28125 335.449219 20.917969 C 327.9375 16.558594 318.667969 16.527344 311.125 20.835938 L 55.933594 166.664062 C 48.453125 170.933594 43.839844 178.886719 43.839844 187.5 C 43.839844 196.113281 48.453125 204.066406 55.933594 208.335938 " clip-rule="nonzero"/></clipPath><clipPath id="f5dd5a7bb6"><path d="M 43 17.578125 L 347.589844 17.578125 L 347.589844 357.421875 L 43 357.421875 Z M 43 17.578125 " clip-rule="nonzero"/></clipPath><clipPath id="5c589f9208"><path d="M 55.597656 208.335938 L 311.082031 354.164062 C 318.636719 358.472656 327.914062 358.441406 335.4375 354.082031 C 342.960938 349.71875 347.589844 341.6875 347.589844 333 L 347.589844 42 C 347.589844 33.3125 342.960938 25.28125 335.4375 20.917969 C 327.914062 16.558594 318.636719 16.527344 311.082031 20.835938 L 55.597656 166.664062 C 48.113281 170.933594 43.492188 178.886719 43.492188 187.5 C 43.492188 196.113281 48.113281 204.066406 55.597656 208.335938 " clip-rule="nonzero"/></clipPath></defs><g clip-path="url(#5bd0c4203a)"><g clip-path="url(#62d2cd4cf3)"><path fill="#37414f" d="M 347.589844 0 L 347.589844 375 L 19.464844 375 L 19.464844 0 Z M 347.589844 0 " fill-opacity="1" fill-rule="nonzero"/></g></g><g clip-path="url(#f5dd5a7bb6)"><g clip-path="url(#5c589f9208)"><path stroke-linecap="butt" transform="matrix(0.000000000000000046, 0.75, -0.750857, 0.000000000000000046, 347.590616, 0)" fill="none" stroke-linejoin="miter" d="M 277.78125 388.879505 L 472.218751 48.622543 C 477.963542 38.561126 477.921876 26.205455 472.109376 16.185657 C 466.291667 6.165858 455.583334 0.00102859 444.000001 0.00102859 L 56 0.00102859 C 44.416667 0.00102859 33.708333 6.165858 27.890625 16.185657 C 22.078125 26.205455 22.036458 38.561126 27.78125 48.622543 L 222.21875 388.879505 C 227.911459 398.847279 238.515625 405.001704 250 405.001704 C 261.484375 405.001704 272.088542 398.847279 277.78125 388.879505 " stroke="#000000" stroke-width="38" stroke-opacity="1" stroke-miterlimit="4"/></g></g></svg>