<svg xmlns="http://www.w3.org/2000/svg" xmlns:xlink="http://www.w3.org/1999/xlink" width="300" zoomAndPan="magnify" viewBox="0 0 224.87999 225" height="300" preserveAspectRatio="xMidYMid meet" version="1.0"><defs><clipPath id="c286ae8ece"><path d="M 10.769531 16.328125 L 213.914062 16.328125 L 213.914062 219.46875 L 10.769531 219.46875 Z M 10.769531 16.328125 " clip-rule="nonzero"/></clipPath><clipPath id="c9a6119b0d"><path d="M 66.394531 29 L 181 29 L 181 207 L 66.394531 207 Z M 66.394531 29 " clip-rule="nonzero"/></clipPath></defs><g clip-path="url(#c286ae8ece)"><path fill="#f1e2b3" d="M 112.339844 219.46875 C 56.351562 219.46875 10.769531 173.886719 10.769531 117.898438 C 10.769531 61.910156 56.351562 16.328125 112.339844 16.328125 C 168.332031 16.328125 213.914062 61.910156 213.914062 117.898438 C 213.914062 173.886719 168.332031 219.46875 112.339844 219.46875 Z M 112.339844 17.828125 C 57.152344 17.828125 12.273438 62.710938 12.273438 117.898438 C 12.273438 173.089844 57.152344 217.96875 112.339844 217.96875 C 167.53125 217.96875 212.410156 173.089844 212.410156 117.898438 C 212.410156 62.710938 167.53125 17.828125 112.339844 17.828125 Z M 112.339844 17.828125 " fill-opacity="1" fill-rule="nonzero"/></g><g clip-path="url(#c9a6119b0d)"><path fill="#f1e2b3" d="M 81.789062 175.582031 C 81.828125 175.417969 81.90625 175.230469 81.96875 175.042969 C 81.699219 174.953125 81.375 174.890625 81.097656 174.835938 C 80.964844 175.472656 80.816406 176.109375 80.695312 176.753906 C 80.90625 176.753906 81.109375 176.753906 81.292969 176.753906 C 81.363281 176.753906 81.421875 176.753906 81.460938 176.761719 C 81.460938 176.753906 81.46875 176.742188 81.46875 176.730469 C 81.566406 176.339844 81.679688 175.976562 81.789062 175.582031 Z M 85.378906 137.761719 C 85.226562 137.738281 85.097656 137.71875 84.964844 137.691406 C 84.921875 137.710938 84.878906 137.738281 84.824219 137.75 C 81.929688 138.421875 75.875 138.433594 75.875 138.433594 C 74.84375 138.433594 74.84375 136.363281 75.875 136.363281 C 77.480469 136.363281 78.921875 136.363281 80.308594 136.28125 C 80.28125 136.269531 80.246094 136.257812 80.21875 136.246094 C 78.441406 135.515625 74.789062 135.027344 72.421875 133.878906 C 72.871094 135.007812 73.253906 136.101562 72.839844 137.347656 C 71.699219 140.753906 72.695312 145.722656 75.613281 147.902344 C 75.765625 148.003906 75.867188 148.121094 75.9375 148.253906 C 78.519531 147.878906 79.871094 143.507812 81.773438 142.027344 C 82.238281 141.664062 82.710938 141.3125 83.1875 140.960938 C 83.023438 141.027344 82.867188 141.078125 82.707031 141.128906 C 80.699219 141.714844 78.859375 142.402344 76.933594 143.183594 C 75.6875 143.6875 75.160156 141.6875 76.375 141.1875 C 78.292969 140.410156 80.234375 139.863281 82.152344 139.125 C 83.28125 138.695312 84.316406 138.203125 85.378906 137.761719 Z M 100.09375 96.664062 C 99.835938 96.53125 99.558594 96.390625 99.300781 96.324219 C 98.472656 96.140625 97.714844 95.53125 96.851562 95.582031 C 96.730469 95.589844 96.628906 95.570312 96.535156 95.535156 C 92.335938 96.894531 88.847656 96.355469 85.085938 94.132812 C 84.964844 96.519531 86.144531 99.527344 87.976562 100.582031 C 88.285156 100.769531 94.203125 104.011719 93.839844 104.714844 C 95.210938 102.082031 97.421875 98.664062 100.09375 96.664062 Z M 100.601562 110.226562 C 100.390625 109.996094 100.171875 109.777344 99.980469 109.527344 C 98.824219 107.996094 97.464844 106.671875 95.976562 105.46875 C 95.683594 105.859375 95.371094 106.222656 95.042969 106.558594 C 93.609375 107.984375 91.15625 104.972656 90.246094 104.371094 C 88.0625 102.929688 84.628906 101.796875 83.839844 98.957031 C 83.746094 98.59375 83.644531 98.179688 83.539062 97.753906 C 83.5 97.828125 83.449219 97.890625 83.40625 97.960938 C 82.992188 98.632812 82.773438 99.433594 82.257812 100.050781 C 81.542969 100.902344 81.128906 101.960938 80.359375 102.785156 C 80.03125 103.160156 79.667969 103.496094 79.296875 103.8125 C 79.625 103.910156 79.957031 104.042969 80.28125 104.238281 C 82.953125 105.855469 85.914062 104.664062 88.5625 106.476562 C 90.078125 107.503906 91.8125 108.226562 93.230469 109.320312 C 93.460938 109.5 93.582031 109.71875 93.632812 109.945312 C 93.839844 109.933594 94.035156 109.933594 94.265625 109.953125 C 95.359375 110.082031 96.398438 110.371094 97.507812 110.347656 C 98.546875 110.316406 99.582031 110.238281 100.601562 110.226562 Z M 102.808594 109.621094 C 102.808594 108.683594 102.808594 107.800781 102.808594 107.492188 C 102.542969 107.363281 102.3125 107.179688 102.152344 106.890625 C 101.609375 105.964844 101.582031 105.199219 100.660156 104.472656 C 99.820312 103.824219 98.757812 103.066406 97.695312 102.820312 C 97.519531 103.121094 97.34375 103.40625 97.15625 103.703125 C 97.695312 104.042969 98.265625 104.382812 98.625 104.820312 C 99.25 105.574219 99.921875 106.285156 100.5625 107.023438 C 101.105469 107.632812 101.726562 108.226562 102.253906 108.839844 C 102.429688 109.046875 102.605469 109.355469 102.808594 109.621094 Z M 104.449219 64.269531 C 104.3125 61.527344 103.855469 58.484375 103.113281 56.054688 C 102.253906 53.296875 100.613281 49.816406 97.890625 48.445312 C 96.328125 47.667969 95.796875 48.304688 94.382812 47.910156 C 91.816406 47.207031 89.894531 46.328125 87.273438 46.582031 C 85.25 46.792969 83.417969 47.421875 81.460938 47.910156 C 77.90625 48.804688 73.316406 50.6875 74.226562 55.253906 C 80.125 57.820312 86.664062 55.769531 91.933594 52.75 C 92.222656 52.582031 92.515625 52.570312 92.761719 52.660156 C 93.039062 52.398438 93.460938 52.308594 93.878906 52.621094 C 95.074219 53.503906 95.257812 54.09375 95.589844 55.5 C 95.710938 56.054688 95.734375 57.46875 96.070312 57.914062 C 96.632812 58.667969 97.785156 59.457031 98.679688 59.921875 C 100.09375 60.683594 101.402344 61.113281 101.777344 62.773438 C 102.054688 64.046875 101.898438 65.277344 102.652344 66.492188 C 103.144531 65.589844 103.671875 64.757812 104.449219 64.269531 Z M 99.753906 135.519531 C 101.023438 137.566406 104.042969 137.929688 106.21875 136.964844 C 104 136.941406 101.910156 136.621094 99.753906 135.519531 Z M 104.882812 108.332031 C 105.0625 108.007812 105.234375 107.699219 105.414062 107.375 C 105.246094 107.414062 105.0625 107.460938 104.882812 107.503906 C 104.882812 107.75 104.882812 108.027344 104.882812 108.332031 Z M 106.933594 102.117188 C 107.113281 101.085938 107.035156 99.734375 106.863281 98.710938 C 106.863281 98.6875 106.863281 98.664062 106.863281 98.644531 C 105.464844 98.105469 103.972656 97.753906 102.519531 97.582031 C 100.925781 98.273438 99.808594 99.542969 98.835938 100.984375 C 100.273438 101.460938 101.984375 102.539062 102.867188 103.5625 C 103.4375 104.25 103.648438 104.960938 103.9375 105.792969 C 103.753906 105.246094 105.683594 105.105469 106.460938 105.054688 C 106.507812 104.589844 106.609375 104.175781 106.75 103.71875 C 106.902344 103.183594 106.839844 102.664062 106.933594 102.117188 Z M 107.289062 68.285156 C 107.332031 67.253906 106.148438 65.691406 105.019531 66.34375 C 104.414062 66.695312 104.414062 67.925781 104.0625 68.519531 C 103.570312 69.367188 102.976562 70.15625 102.253906 70.816406 C 101.265625 71.710938 99.796875 70.246094 100.78125 69.347656 C 100.976562 69.171875 101.15625 68.964844 101.324219 68.746094 C 101.324219 68.726562 101.300781 68.703125 101.300781 68.675781 C 101.003906 66.914062 99.632812 65.796875 99.703125 63.867188 C 99.765625 62.21875 96.851562 61.257812 95.710938 60.492188 C 94.953125 59.972656 94.179688 59.085938 93.925781 58.183594 C 93.609375 57.054688 93.890625 55.398438 92.96875 54.539062 C 90.308594 56.070312 86.535156 58.429688 83.386719 58.429688 C 80.371094 58.429688 77.128906 58.402344 74.226562 57.433594 C 72.832031 62.21875 73.546875 67.976562 74.796875 72.640625 C 75.949219 76.898438 77.949219 82.890625 80.394531 86.652344 C 82.148438 89.324219 84.238281 91.332031 87.015625 92.875 C 88.804688 93.871094 93.40625 94.914062 96.304688 93.730469 C 96.398438 93.652344 96.511719 93.601562 96.644531 93.574219 C 97.539062 93.125 98.230469 92.445312 98.574219 91.425781 C 99.992188 87.171875 100.6875 84.015625 100.613281 79.402344 C 100.585938 78.066406 102.652344 78.066406 102.6875 79.402344 C 102.738281 82.5 103.078125 86.394531 101.835938 89.363281 C 101.3125 90.628906 100.71875 93.222656 99.484375 94.242188 C 100.234375 94.597656 100.964844 94.925781 101.777344 94.9375 C 102.222656 94.769531 102.664062 94.617188 103.027344 94.355469 C 104.054688 93.628906 104.664062 92.578125 105.152344 91.4375 C 105.644531 90.308594 105.902344 89.253906 106.085938 88.101562 C 106.074219 88.050781 106.050781 88.011719 106.046875 87.949219 C 105.917969 85.316406 103.183594 79.386719 104.765625 76.679688 C 105.660156 75.160156 106.023438 74.007812 106.476562 72.394531 C 106.738281 71.570312 106.871094 70.746094 106.945312 69.882812 C 106.996094 69.335938 107.265625 68.820312 107.289062 68.285156 Z M 109.917969 100.320312 C 109.628906 100.097656 109.316406 99.894531 109.007812 99.699219 C 109.03125 100.304688 109.03125 100.902344 109.03125 101.511719 C 109.304688 101.109375 109.613281 100.707031 109.917969 100.320312 Z M 112.320312 97.585938 C 112.320312 97.570312 112.3125 97.558594 112.300781 97.546875 C 111.761719 95.582031 110.589844 94.078125 109.238281 92.554688 C 108.851562 92.121094 108.355469 90.773438 107.847656 89.761719 C 107.503906 91.1875 107.007812 92.535156 106.21875 93.871094 C 105.660156 94.824219 105.019531 95.351562 104.3125 95.789062 C 106.8125 96.285156 109.203125 97.21875 111.253906 98.761719 C 111.605469 98.363281 111.96875 97.984375 112.320312 97.585938 Z M 113.898438 95.847656 C 114.128906 95.582031 114.339844 95.300781 114.570312 95.03125 C 114.402344 94.988281 114.25 94.949219 114.082031 94.9375 C 113.855469 94.914062 113.636719 94.910156 113.417969 94.886719 C 113.597656 95.183594 113.753906 95.507812 113.898438 95.847656 Z M 122.484375 199.710938 C 122.082031 188.3125 122.714844 176.9375 121.199219 165.617188 C 120.476562 160.195312 119.839844 154.621094 118.390625 149.328125 C 117.371094 145.609375 117.105469 139.59375 114.726562 136.351562 C 114.09375 136.550781 113.429688 136.683594 112.714844 136.707031 C 111.667969 136.734375 110.675781 136.800781 109.710938 136.851562 C 109.65625 137.097656 109.535156 137.335938 109.28125 137.511719 C 107.253906 139.046875 104.375 140.773438 101.476562 141.300781 C 100.417969 144.699219 99.445312 148.125 98.394531 151.523438 C 97.394531 154.789062 95.734375 157.71875 94.382812 160.832031 C 93.851562 162.054688 92.066406 161 92.597656 159.792969 C 94.035156 156.453125 95.757812 153.324219 96.761719 149.808594 C 97.5625 147.007812 98.40625 144.222656 99.273438 141.445312 C 98.910156 141.429688 98.546875 141.386719 98.195312 141.300781 C 97.953125 141.613281 97.769531 142.273438 97.625 142.597656 C 97.320312 143.25 97.019531 143.839844 96.644531 144.464844 C 95.828125 145.828125 95.03125 147.214844 94.121094 148.527344 C 93.375 149.628906 91.570312 148.59375 92.335938 147.496094 C 93.34375 146.023438 94.230469 144.464844 95.160156 142.933594 C 95.578125 142.210938 95.828125 141.324219 96.234375 140.566406 C 95.175781 139.976562 94.109375 139.417969 93.1875 138.683594 C 91.996094 138.566406 90.855469 138.476562 89.738281 138.371094 C 89.710938 138.554688 89.625 138.746094 89.425781 138.914062 C 86.484375 141.367188 82.929688 143.09375 80.851562 146.398438 C 79.675781 148.253906 78.195312 150.222656 75.910156 150.335938 C 75.960938 151.777344 76.183594 153.308594 77.296875 154.269531 C 77.832031 154.722656 78.375 155.160156 78.878906 155.65625 C 79.21875 155.980469 79.386719 156.628906 79.375 157.074219 C 79.375 156.992188 80.660156 155.375 80.839844 155.179688 C 82.734375 153.128906 83.367188 150.589844 84.394531 148.085938 C 85.054688 146.4375 86.160156 145.050781 86.664062 143.335938 C 87.03125 142.054688 89.035156 142.597656 88.660156 143.894531 C 88.234375 145.363281 87.375 146.523438 86.742188 147.890625 C 85.863281 149.785156 85.425781 151.886719 84.398438 153.710938 C 83.691406 154.984375 82.539062 157.164062 81.167969 158.484375 C 81.074219 161.023438 82.835938 161.480469 81.65625 164.117188 C 80.546875 166.59375 82.660156 168.945312 81.929688 171.59375 C 81.8125 172 81.699219 172.425781 81.582031 172.84375 C 82.433594 173.046875 83.5 173.253906 83.957031 174.027344 C 84.460938 174.890625 83.644531 175.902344 83.476562 176.640625 C 83.292969 177.480469 83.003906 178.339844 82.277344 178.886719 C 81.886719 179.183594 81.023438 179.269531 80.292969 179.269531 C 80.125 180.503906 80.019531 181.710938 80.019531 182.839844 C 80.019531 184.269531 78.984375 189.140625 79.714844 189.871094 C 79.8125 189.96875 79.871094 190.078125 79.929688 190.183594 C 84.515625 191.035156 87.613281 193.601562 91.957031 195.042969 C 95.929688 196.367188 100.355469 198.714844 104.414062 199.523438 C 110.082031 200.65625 116.859375 201.191406 122.484375 199.710938 Z M 122.507812 203.542969 C 122.785156 202.953125 122.859375 202.351562 122.878906 201.734375 C 118.390625 202.863281 113.832031 202.808594 109.03125 202.25 C 103.539062 201.617188 99.070312 199.597656 93.863281 197.9375 C 91.75 197.277344 89.789062 196.328125 87.84375 195.382812 C 87.324219 196.136719 86.8125 197.207031 86.753906 198.105469 C 86.675781 199.429688 84.589844 199.441406 84.679688 198.105469 C 84.761719 196.898438 85.285156 195.527344 85.964844 194.484375 C 83.824219 193.476562 81.644531 192.578125 79.265625 192.152344 C 78.496094 194.9375 77.429688 197.597656 77.429688 200.570312 C 77.429688 203.8125 76.558594 203.191406 80.539062 203.554688 C 81.667969 203.644531 82.796875 203.71875 83.933594 203.785156 C 83.957031 203.449219 84.046875 203.109375 84.140625 202.722656 C 84.308594 202.03125 84.289062 201.285156 84.289062 200.570312 C 84.296875 199.234375 86.367188 199.234375 86.363281 200.570312 C 86.363281 201.273438 86.363281 201.980469 86.246094 202.671875 C 86.207031 202.878906 85.964844 203.800781 85.964844 203.800781 C 85.976562 203.824219 85.976562 203.851562 85.988281 203.875 C 91.105469 204.058594 96.277344 203.9375 101.351562 203.9375 C 108.355469 203.9375 115.417969 204.238281 122.460938 204.371094 C 122.371094 204.125 122.371094 203.835938 122.507812 203.542969 Z M 119.046875 64.902344 C 117.542969 62.253906 120.453125 60.988281 122.769531 61.230469 C 122.613281 60.882812 122.460938 60.542969 122.359375 60.226562 C 121.574219 57.914062 120.566406 56.515625 119.074219 54.867188 C 119.046875 54.890625 119.023438 54.914062 119.007812 54.917969 C 116.390625 56.746094 114.933594 61.726562 116.136719 64.511719 C 116.660156 65.734375 117.347656 66.285156 118.308594 67.15625 C 119.097656 67.859375 119.996094 67.597656 120.902344 67.289062 C 120.199219 66.539062 119.519531 65.746094 119.046875 64.902344 Z M 124.871094 67.925781 C 125.300781 68.042969 125.738281 68.082031 126.171875 68.117188 C 125.574219 66.511719 124.664062 64.886719 123.839844 63.371094 C 123.597656 63.464844 123.304688 63.476562 123.015625 63.34375 C 122.671875 63.1875 120.628906 63.359375 120.773438 63.722656 C 121.191406 64.695312 121.980469 65.144531 122.617188 65.921875 C 123.210938 66.625 123.9375 67.691406 124.871094 67.925781 Z M 134.367188 165.835938 C 135.507812 165.058594 136.644531 164.292969 137.773438 163.515625 C 137.570312 162.261719 137.363281 161.023438 137.121094 159.78125 C 135.871094 160.691406 134.761719 161.753906 133.488281 162.625 C 132.855469 163.0625 132.253906 163.539062 131.632812 163.996094 C 131.519531 164.105469 131.425781 164.203125 131.355469 164.253906 C 131.414062 164.511719 131.464844 164.773438 131.5625 165.019531 C 131.8125 165.628906 131.984375 166.261719 132.230469 166.863281 C 132.382812 167.238281 134.191406 165.964844 134.367188 165.835938 Z M 138.148438 50.6875 C 139.144531 47.871094 140.367188 45.238281 139.246094 42.390625 C 138.171875 43.292969 137.613281 46.316406 137.109375 47.300781 C 136.015625 49.507812 135.066406 51.671875 134.367188 54.050781 C 134.292969 54.320312 134.132812 54.5 133.929688 54.621094 C 133.316406 55.4375 131.738281 54.902344 132.117188 53.75 C 133.148438 50.675781 132.296875 47.785156 132.640625 44.667969 C 132.835938 42.851562 133.996094 40.277344 133.050781 38.507812 C 129.300781 42.890625 128.453125 54.550781 128.453125 54.550781 C 128.453125 55.585938 126.378906 55.585938 126.378906 54.550781 C 126.378906 51.441406 126.835938 49.765625 127.128906 47.277344 C 127.273438 46.085938 127.300781 44.53125 127.820312 43.449219 C 128.21875 42.597656 128.660156 41.636719 129.148438 40.679688 C 125.273438 42.636719 124.960938 51.441406 124.960938 51.441406 C 124.960938 52.476562 122.890625 52.476562 122.890625 51.441406 C 122.890625 49.742188 123.003906 47.808594 123.382812 45.953125 C 122.289062 47.238281 121.484375 48.636719 120.734375 50.335938 C 119.667969 52.789062 123.46875 57.085938 124.363281 59.675781 C 126.390625 65.640625 131.414062 69.621094 127.238281 75.636719 C 125.054688 78.804688 122.890625 82.449219 121.421875 86.023438 C 120.34375 88.648438 119.359375 91.964844 117.832031 94.34375 C 115.5625 97.921875 112.078125 100.511719 109.734375 104.082031 C 108.097656 106.570312 106.65625 109.1875 105.390625 111.882812 C 105.554688 112.304688 105.492188 112.84375 105.019531 113.171875 C 101.945312 115.363281 99.183594 124.183594 99.183594 127.816406 C 99.183594 129.03125 99.042969 131.007812 99.117188 132.707031 C 103 135.417969 106.707031 134.832031 111.222656 134.6875 C 115.980469 134.53125 117.992188 131.714844 120.175781 127.945312 C 120.269531 127.789062 120.371094 127.683594 120.488281 127.605469 C 122.1875 123.957031 124.820312 120.746094 126.464844 117.058594 C 128.949219 111.464844 129.882812 105.453125 131.621094 99.621094 C 132.773438 95.789062 133.851562 91.839844 135.09375 88.0625 C 135.941406 85.460938 139.796875 76.234375 137.664062 73.320312 C 136.976562 73.1875 136.429688 72.257812 137.042969 71.554688 C 139.316406 68.910156 139.027344 65.722656 137.726562 62.65625 C 137.199219 61.402344 137.371094 60.171875 137.199219 58.9375 C 136.449219 58.859375 135.828125 57.882812 136.523438 57.183594 C 138.03125 55.65625 137.472656 52.582031 138.148438 50.6875 Z M 141.308594 182.425781 C 142.625 178.273438 141.171875 176.875 139.921875 173.207031 C 139.082031 170.777344 138.585938 168.289062 138.160156 165.796875 C 136.644531 166.925781 134.980469 168.320312 133.292969 168.882812 C 130.957031 169.660156 130.695312 168.066406 129.882812 166.355469 C 128.988281 164.480469 128.917969 163.390625 130.585938 162.203125 C 132.640625 160.730469 134.496094 158.992188 136.609375 157.601562 C 136.617188 157.59375 136.628906 157.59375 136.644531 157.585938 C 136.132812 155.425781 135.445312 153.308594 134.421875 151.257812 C 134.097656 150.613281 134.484375 150.015625 134.992188 149.796875 C 135.125 143.53125 134.378906 137.226562 134.605469 130.925781 C 134.847656 124.050781 133.414062 119.128906 130.140625 113.363281 C 128.960938 116.402344 127.296875 119.121094 126.078125 122.144531 C 124.96875 124.910156 122.835938 126.945312 121.8125 129.773438 C 121.679688 130.148438 121.410156 130.34375 121.109375 130.429688 C 119.90625 132.34375 118.464844 134.273438 116.59375 135.476562 C 118.332031 138.203125 118.839844 141.957031 119.484375 145.023438 C 120.5625 150.148438 121.96875 155.230469 122.617188 160.441406 C 123.5 167.359375 124.304688 173.925781 124.304688 180.90625 C 124.304688 186.953125 124.328125 192.992188 124.535156 199.027344 C 126.535156 198.066406 128 196.40625 130.007812 195.539062 C 133.0625 194.203125 135.421875 192.59375 137.765625 190.308594 C 137.773438 190.28125 137.773438 190.246094 137.789062 190.21875 C 138.90625 187.597656 140.453125 185.160156 141.308594 182.425781 Z M 141.636719 203.847656 C 142.699219 203.667969 146.472656 203.8125 146.386719 202.1875 C 146.257812 199.878906 145.734375 198.335938 145.007812 196.148438 C 144.582031 194.851562 143.777344 194.121094 142.980469 193.355469 C 142.457031 196.636719 141.375 200.324219 138.769531 202.34375 C 137.726562 203.148438 136.246094 201.6875 137.300781 200.875 C 139.898438 198.859375 140.804688 194.742188 141.144531 191.644531 C 141.167969 191.449219 141.234375 191.292969 141.332031 191.15625 C 141.039062 190.339844 141.0625 189.363281 140.945312 188.433594 C 140.671875 188.972656 140.398438 189.507812 140.148438 190.027344 C 140.273438 190.363281 140.25 190.742188 139.933594 191.074219 C 137.757812 193.332031 135.601562 195.332031 132.667969 196.613281 C 130.410156 197.597656 128.855469 199.585938 126.617188 200.507812 C 126.070312 200.738281 125.519531 200.921875 124.960938 201.113281 C 124.984375 201.710938 125.003906 202.320312 124.871094 202.890625 C 124.753906 203.421875 124.589844 203.90625 124.371094 204.394531 C 130.027344 204.472656 135.664062 204.421875 141.257812 203.996094 C 141.363281 203.925781 141.488281 203.875 141.636719 203.847656 Z M 148.117188 98.398438 C 148.523438 98.449219 148.9375 98.570312 149.328125 98.726562 C 146.996094 92.195312 143.214844 86.742188 139.179688 81.175781 C 138.234375 85.574219 136.949219 90.070312 135.539062 94.304688 C 135.476562 94.496094 135.421875 94.679688 135.359375 94.867188 C 137.898438 94.304688 140.324219 94.597656 142.492188 96.347656 C 143.0625 96.804688 144.425781 98.304688 145.164062 98.304688 C 146.160156 98.304688 147.132812 98.292969 148.117188 98.398438 Z M 155.421875 43.21875 C 155.128906 43.167969 154.816406 43.085938 154.5 42.992188 C 150.746094 41.84375 148.820312 36.203125 149.265625 32.457031 C 146.800781 33.164062 144.207031 34.125 142.058594 35.4375 C 140.117188 36.632812 136.851562 37.535156 135.355469 39.273438 C 135.417969 40.507812 135.070312 41.832031 134.886719 43.179688 C 134.699219 44.589844 134.707031 45.992188 134.742188 47.394531 C 135.382812 46.234375 136.027344 45.03125 136.339844 43.753906 C 136.863281 41.59375 137.371094 40.132812 139.847656 40.050781 C 140.429688 40.027344 140.738281 40.414062 140.808594 40.847656 C 142.519531 44.277344 141.703125 46.851562 140.429688 50.425781 C 139.765625 52.308594 139.859375 54.664062 139.183594 56.625 C 142.6875 54.785156 145.484375 52.695312 148.164062 49.648438 C 150.355469 47.15625 152.984375 45.332031 155.421875 43.21875 Z M 153.417969 39.390625 C 157.675781 41.078125 159.410156 40.476562 158.632812 37.585938 C 158.632812 33.285156 155.128906 31.546875 151.464844 31.960938 C 150.859375 34.15625 152.09375 37.949219 153.417969 39.390625 Z M 166.679688 126.007812 C 164.753906 126.175781 162.691406 126.378906 160.980469 125.894531 C 159.605469 125.507812 157.460938 125.28125 156.59375 124 C 155.625 122.570312 154.375 120.589844 154.15625 118.851562 C 153.9375 117.050781 154.398438 115.15625 154.703125 113.339844 C 154.234375 112.851562 153.804688 112.339844 153.429688 111.769531 C 153.101562 112.148438 152.789062 112.5625 152.691406 112.949219 C 152.570312 113.546875 152.386719 114.128906 152.21875 114.71875 C 151.828125 116.0625 151.855469 117.957031 152.375 119.253906 C 152.871094 120.5 150.859375 121.035156 150.375 119.8125 C 149.8125 118.394531 149.640625 116.195312 150.066406 114.71875 C 150.34375 113.730469 150.601562 112.742188 150.894531 111.746094 C 151.121094 111.003906 151.984375 110.421875 152.425781 109.816406 C 152.433594 109.8125 152.445312 109.800781 152.457031 109.777344 C 152.074219 108.609375 152.042969 107.480469 151.898438 106.207031 C 151.679688 104.3125 150.882812 103.003906 150.273438 101.410156 C 150.125 101.398438 149.972656 101.359375 149.8125 101.265625 C 147.710938 100.035156 145.289062 101.109375 143.34375 99.96875 C 142.242188 99.332031 141.621094 98.054688 140.410156 97.402344 C 138.40625 96.324219 136.691406 96.542969 134.644531 97.207031 C 133.320312 101.835938 132.347656 106.585938 130.902344 111.160156 C 131.144531 111.199219 131.386719 111.355469 131.550781 111.628906 C 132.019531 112.429688 132.449219 113.226562 132.878906 114.003906 C 132.929688 113.765625 132.980469 113.523438 133.019531 113.300781 C 133.632812 110.214844 133.425781 107.15625 134.8125 104.261719 C 135.382812 103.046875 137.167969 104.105469 136.597656 105.296875 C 135.601562 107.386719 135.652344 109.59375 135.359375 111.832031 C 135.269531 112.574219 135.148438 113.3125 134.96875 114.039062 C 135.964844 112.460938 137.238281 111.03125 138.46875 109.617188 C 139.339844 108.597656 140.804688 110.070312 139.933594 111.070312 C 138.917969 112.253906 137.675781 113.351562 136.875 114.699219 C 136.265625 115.742188 135.457031 117.398438 135.320312 118.632812 C 135.300781 118.8125 135.238281 118.953125 135.15625 119.085938 C 135.734375 120.695312 136.183594 122.339844 136.449219 124.078125 C 137.636719 124.132812 139.570312 124.296875 139.691406 123.914062 C 139.992188 122.992188 140.335938 122.058594 140.964844 121.292969 C 141.789062 120.300781 142.957031 119.699219 143.777344 118.671875 C 144.871094 117.296875 145.671875 115.972656 146.355469 114.335938 C 146.863281 113.121094 148.863281 113.664062 148.355469 114.894531 C 147.628906 116.613281 146.914062 118.023438 145.746094 119.492188 C 144.851562 120.601562 143.382812 121.605469 142.492188 122.820312 C 144.046875 123.300781 145.890625 122.121094 147.507812 122.691406 C 149.433594 123.378906 151.257812 123.015625 153.117188 123.574219 C 155.566406 124.285156 156.964844 126.515625 159.8125 126.945312 C 162.566406 127.375 164.621094 127.4375 166.679688 126.007812 Z M 174.160156 122.132812 C 176.160156 121.242188 181.65625 121.132812 177.960938 115.730469 C 177.300781 114.894531 176.648438 114.042969 175.992188 113.195312 C 173.878906 109.40625 171.671875 105.625 169.644531 101.800781 C 167.46875 97.703125 163.71875 94.617188 161.054688 90.773438 C 158.828125 87.574219 155.722656 84.976562 153.875 81.515625 C 153.765625 81.410156 153.671875 81.28125 153.613281 81.101562 C 152.238281 76.910156 147.601562 73.707031 146.605469 69.453125 C 145.554688 64.976562 145.550781 60.441406 144.4375 55.9375 C 142.917969 57.015625 141.277344 57.90625 139.46875 58.804688 C 139.402344 58.835938 139.339844 58.847656 139.28125 58.859375 C 139.402344 60.027344 139.3125 61.136719 139.871094 62.4375 C 140.410156 63.710938 140.542969 65.019531 140.75 66.378906 C 141.089844 68.558594 140.625 70.101562 139.570312 71.65625 C 140.441406 71.699219 141.332031 71.824219 142.128906 71.542969 C 143.152344 71.179688 143.917969 70.746094 144.730469 70 C 145.710938 69.089844 147.226562 70.550781 146.253906 71.460938 C 145.175781 72.453125 144.023438 73.074219 142.644531 73.539062 C 141.957031 73.769531 140.832031 73.789062 140.027344 73.757812 C 140.3125 75.261719 140.042969 77.023438 139.742188 78.519531 C 139.828125 78.585938 139.898438 78.660156 139.960938 78.75 C 143.84375 84.082031 147.898438 89.191406 150.300781 95.433594 C 151.417969 98.347656 153.441406 101.644531 153.804688 104.796875 C 154.414062 110.097656 156.4375 111.964844 160.132812 115.429688 C 161.109375 116.351562 159.644531 117.816406 158.671875 116.90625 C 157.96875 116.242188 157.21875 115.625 156.5 115 C 156.21875 116.492188 155.945312 118.242188 156.382812 119.277344 C 156.828125 120.34375 158.125 122.992188 159.242188 123.246094 C 161.28125 123.699219 163.183594 123.820312 165.128906 123.84375 C 165.09375 123.808594 165.054688 123.792969 165.011719 123.757812 C 163.964844 122.941406 165.441406 121.484375 166.488281 122.300781 C 166.722656 122.484375 167.191406 122.640625 167.46875 122.777344 C 167.777344 122.929688 168.101562 123.003906 168.421875 123.105469 C 169.089844 123.324219 169.738281 123.574219 170.382812 123.871094 C 171.671875 123.445312 172.898438 122.691406 174.160156 122.132812 Z M 176.46875 109.511719 C 178.257812 113.46875 183.300781 117.578125 179.558594 121.949219 C 177.960938 123.808594 174.253906 124.496094 172.097656 125.480469 C 171.242188 125.871094 170.445312 126.113281 169.59375 126.214844 L 169.59375 126.222656 C 166.234375 129.710938 159.421875 130.832031 155.253906 127.707031 C 153.699219 126.542969 148.25 123.976562 145.824219 124.671875 C 144.605469 125.023438 142.933594 125.144531 141.648438 124.714844 C 141.414062 125.398438 141.132812 125.839844 140.210938 126.117188 C 139.390625 126.371094 137.664062 126.277344 136.679688 126.203125 C 136.742188 127.144531 136.769531 128.109375 136.742188 129.113281 C 136.472656 136.695312 137.40625 144.246094 137 151.777344 C 137 151.804688 136.976562 151.832031 136.976562 151.867188 C 140.3125 159.707031 140.210938 168.332031 143.585938 176.238281 C 144.90625 179.277344 143.765625 182.632812 142.273438 185.785156 C 142.285156 185.796875 142.296875 185.796875 142.296875 185.8125 C 142.875 186.882812 143.140625 187.832031 143.257812 189.042969 C 143.425781 190.804688 143.765625 190.691406 144.839844 191.957031 C 146.550781 193.988281 147.667969 196.441406 148.355469 199 C 148.695312 200.230469 149.144531 204.03125 147.8125 204.867188 C 146.40625 205.757812 144.425781 205.589844 142.75 205.769531 C 142.59375 205.898438 142.417969 205.988281 142.179688 206.007812 C 125.675781 207.386719 108.746094 205.875 92.175781 205.875 C 87.796875 205.875 83.472656 205.914062 79.109375 205.46875 C 78.296875 205.390625 75.910156 205.390625 75.367188 204.457031 C 74.527344 203.019531 75.355469 200.445312 75.355469 198.894531 C 75.355469 196.222656 76.828125 193.382812 77.46875 190.84375 C 77.515625 190.683594 77.574219 190.546875 77.664062 190.441406 C 77.078125 189.105469 77.398438 187.367188 77.730469 185.992188 C 78.257812 183.746094 77.9375 181.246094 78.207031 178.949219 C 78.222656 178.804688 78.257812 178.660156 78.292969 178.511719 C 78.121094 177.933594 78.234375 177.15625 78.644531 176.863281 C 78.921875 175.769531 79.253906 174.671875 79.375 173.519531 C 79.542969 171.878906 80.710938 169.820312 79.648438 168.210938 C 78.972656 167.214844 78.996094 167.152344 78.949219 165.941406 C 78.890625 164.160156 80.597656 162.855469 79.507812 160.832031 C 79.242188 160.339844 79.128906 159.953125 79.078125 159.5625 C 77.300781 159.664062 77.453125 157.125 76.4375 156.257812 C 75.316406 155.292969 74.664062 154.207031 74.277344 153.007812 C 73.902344 151.792969 73.800781 150.480469 73.800781 149.050781 C 70.695312 146.53125 70.25 143.023438 70.476562 139.210938 C 70.527344 138.457031 71.097656 136.292969 70.511719 135.660156 C 70.207031 135.324219 69.929688 134.871094 69.824219 134.4375 C 69.628906 133.574219 69.527344 132.757812 69.503906 131.949219 C 68.695312 131.363281 68.269531 130.234375 68.230469 129.238281 C 68.230469 129.070312 68.257812 128.917969 68.320312 128.789062 C 68.101562 127.230469 68.230469 125.90625 68.617188 124.753906 C 68.34375 124.585938 68.136719 124.328125 68.101562 123.9375 C 68.046875 123.09375 67.894531 122.289062 67.773438 121.472656 C 67.75 121.460938 67.746094 121.460938 67.710938 121.449219 C 67.324219 121.34375 66.777344 120.871094 66.714844 120.457031 C 66.351562 118.1875 66.53125 115.835938 67.476562 113.703125 C 68.292969 111.839844 67.96875 109.996094 70.125 109.394531 C 70.148438 109.210938 70.207031 109.011719 70.355469 108.839844 C 71.71875 107.097656 73.960938 104.777344 76.339844 103.9375 C 76.339844 103.707031 76.445312 103.472656 76.699219 103.265625 C 78.21875 102.042969 79.253906 100.863281 80.292969 99.203125 C 80.746094 98.46875 81.097656 97.597656 81.617188 96.917969 C 81.96875 96.453125 82.554688 95.859375 82.773438 95.3125 C 82.847656 95.121094 82.964844 94.988281 83.097656 94.875 C 83.046875 94.171875 83.066406 93.488281 83.175781 92.875 C 82.980469 92.742188 82.796875 92.605469 82.613281 92.460938 C 77.660156 88.753906 75.792969 81.464844 73.707031 75.988281 C 71.460938 70.089844 70.332031 62.605469 72.34375 56.457031 C 72.261719 56.289062 72.214844 56.117188 72.25 55.925781 C 70.054688 46.253906 85.785156 43.414062 92.585938 44.449219 C 93.910156 44.644531 94.484375 45.925781 95.953125 45.925781 C 96.476562 45.925781 97.125 45.863281 97.628906 46.121094 C 100.417969 47.507812 101.960938 49.277344 103.582031 51.890625 C 105.683594 55.292969 106.386719 59.503906 106.53125 63.941406 C 107.953125 64.398438 108.953125 66.417969 108.996094 67.703125 C 109.082031 70.402344 108.953125 75.378906 106.914062 77.414062 C 105.855469 78.46875 107.121094 82.253906 107.472656 83.265625 C 107.878906 84.457031 107.992188 85.617188 108.0625 86.84375 C 109.371094 87.675781 109.722656 89.65625 110.574219 90.878906 C 111.046875 91.570312 111.523438 92.175781 111.980469 92.773438 C 112.03125 92.761719 112.078125 92.734375 112.132812 92.742188 C 112.871094 92.742188 113.585938 92.835938 114.3125 92.886719 C 114.820312 92.917969 115.261719 93.210938 115.761719 93.261719 C 115.78125 93.261719 115.804688 93.273438 115.820312 93.273438 C 116.082031 92.847656 116.332031 92.410156 116.546875 91.957031 C 118.050781 88.816406 119.160156 85.417969 120.890625 82.398438 C 122.617188 79.363281 124.828125 76.351562 126.328125 73.230469 C 126.78125 72.28125 126.871094 71.265625 126.71875 70.207031 C 125.167969 70.167969 123.839844 69.917969 122.617188 68.910156 C 120.953125 69.269531 118.996094 70.539062 117.460938 69.164062 C 115.878906 67.753906 114.570312 66.742188 113.9375 64.59375 C 112.769531 60.636719 114.570312 55.5 117.957031 53.140625 C 117.992188 53.109375 118.027344 53.097656 118.0625 53.078125 C 117.675781 48.652344 120.539062 45.476562 123.574219 42.816406 C 123.875 42.554688 124.195312 42.515625 124.496094 42.585938 C 125.613281 40.289062 127.46875 38.570312 130.492188 38.371094 C 130.992188 37.640625 131.527344 36.953125 132.117188 36.40625 C 132.253906 36.292969 132.386719 36.214844 132.527344 36.175781 C 132.894531 35.917969 133.40625 35.847656 133.851562 36.203125 C 134.171875 36.488281 134.433594 36.769531 134.640625 37.070312 C 136.628906 35.335938 140.042969 33.902344 142.179688 32.945312 C 145.1875 31.585938 148.25 30.503906 151.484375 29.859375 C 155.980469 28.980469 159.71875 31.792969 160.664062 36.019531 C 161.292969 38.882812 160.722656 41.417969 159.035156 42.621094 C 159.015625 42.648438 159.003906 42.6875 158.972656 42.722656 C 157.074219 44.710938 154.621094 45.929688 152.664062 47.8125 C 151.109375 49.328125 149.585938 50.96875 148.164062 52.59375 C 147.472656 53.386719 146.757812 54.085938 146.015625 54.71875 C 146.015625 54.722656 146.023438 54.734375 146.023438 54.746094 C 146.199219 54.867188 146.34375 55.035156 146.414062 55.304688 C 146.945312 57.433594 147.8125 59.449219 147.929688 61.671875 C 148.054688 64.179688 147.710938 67.472656 149.027344 69.6875 C 151.132812 73.199219 154.144531 76.390625 155.503906 80.273438 C 155.542969 80.324219 155.59375 80.363281 155.636719 80.4375 C 157.007812 83.019531 159.214844 84.894531 160.96875 87.171875 C 163.382812 90.308594 165.441406 93.367188 168.273438 96.152344 C 171.613281 99.421875 174.546875 105.25 176.46875 109.511719 Z M 68.386719 119.398438 C 68.816406 119.398438 69.121094 119.730469 69.445312 119.980469 C 69.890625 120.34375 70.03125 121.199219 70.101562 122.058594 C 71.511719 120.289062 73.585938 118.828125 75.792969 117.117188 C 79.023438 114.613281 84.433594 111.976562 88.5625 111.902344 C 89.90625 111.871094 89.90625 113.941406 88.5625 113.972656 C 84.980469 114.039062 80.941406 116.28125 77.957031 118.167969 C 74.589844 120.300781 69.96875 124.066406 70.34375 128.335938 C 71.851562 128.316406 73.355469 128.171875 74.703125 127.449219 C 75.875 126.804688 76.921875 128.59375 75.753906 129.226562 C 74.480469 129.929688 73.089844 130.222656 71.679688 130.339844 C 71.65625 130.460938 71.640625 130.574219 71.640625 130.691406 C 71.875 130.742188 72.09375 130.898438 72.238281 131.183594 C 72.796875 132.273438 76.847656 132.664062 77.96875 133.113281 C 79.8125 133.84375 81.644531 134.480469 83.535156 135.113281 C 86.265625 136.023438 88.765625 136.242188 91.457031 136.464844 C 90.917969 134.714844 91.3125 132.066406 91.15625 130.539062 C 91.023438 129.203125 93.097656 129.214844 93.230469 130.539062 C 93.40625 132.3125 92.882812 135.738281 94.398438 137.035156 C 95.828125 138.269531 97.992188 139.148438 99.832031 139.078125 C 100.183594 139.066406 100.511719 139.035156 100.832031 139.003906 C 98.605469 138.058594 96.898438 136.050781 96.851562 133.132812 C 96.773438 128.007812 97.332031 124.464844 99.117188 119.847656 C 100.183594 117.050781 100.769531 114.492188 102.738281 112.460938 C 100.765625 111.890625 98.242188 112.40625 96.304688 112.496094 C 95.359375 112.535156 94.484375 111.914062 93.464844 112.046875 C 92.554688 112.160156 91.707031 112.679688 90.777344 112.804688 C 89.445312 112.976562 89.46875 110.90625 90.777344 110.730469 C 90.996094 110.699219 91.191406 110.644531 91.386719 110.601562 C 90.503906 110.109375 89.546875 109.769531 88.742188 109.136719 C 86.496094 107.375 84.617188 107.933594 82.070312 107.203125 C 79.714844 106.515625 78.167969 105.066406 75.832031 106.933594 C 74.988281 107.613281 74.117188 108.164062 73.316406 108.816406 C 75.292969 108.542969 77.273438 108.347656 79.21875 107.921875 C 80.527344 107.632812 81.074219 109.621094 79.777344 109.914062 C 77.140625 110.503906 74.40625 110.503906 71.785156 111.125 C 70.011719 111.539062 69.449219 113.820312 69.019531 115.535156 C 68.933594 115.867188 68.683594 119.242188 68.386719 119.398438 " fill-opacity="1" fill-rule="nonzero"/></g><path fill="#f1e2b3" d="M 175.457031 116.425781 C 175.472656 117.648438 175.703125 118.964844 174.550781 119.785156 C 174.097656 120.105469 173.40625 119.863281 173.148438 119.410156 C 172.851562 118.925781 173.019531 118.394531 173.421875 118.0625 C 173.457031 118.046875 173.488281 118.011719 173.515625 117.992188 C 173.46875 118.023438 173.445312 118.050781 173.421875 118.0625 C 173.40625 118.074219 173.40625 118.085938 173.394531 118.085938 C 173.394531 118.050781 173.421875 117.992188 173.433594 117.90625 C 173.433594 117.90625 173.445312 117.554688 173.433594 117.433594 C 173.421875 117.101562 173.394531 116.761719 173.382812 116.425781 C 173.367188 115.089844 175.433594 115.089844 175.457031 116.425781 " fill-opacity="1" fill-rule="nonzero"/><path fill="#f1e2b3" d="M 173.511719 112.804688 C 174.097656 113.992188 172.316406 115.039062 171.71875 113.835938 C 171.332031 113.058594 170.941406 112.285156 170.554688 111.507812 C 169.957031 110.316406 171.746094 109.269531 172.335938 110.472656 C 172.730469 111.25 173.117188 112.027344 173.511719 112.804688 " fill-opacity="1" fill-rule="nonzero"/><path fill="#f1e2b3" d="M 173.394531 118.085938 C 173.382812 118.097656 173.382812 118.097656 173.394531 118.085938 " fill-opacity="1" fill-rule="nonzero"/><path fill="#f1e2b3" d="M 141.671875 113.960938 C 142.425781 112.875 144.21875 113.898438 143.464844 115.011719 C 142.777344 115.988281 142 116.882812 141.207031 117.773438 C 140.671875 118.363281 139.496094 119.171875 139.289062 119.8125 C 138.886719 121.078125 136.886719 120.539062 137.300781 119.253906 C 137.636719 118.199219 138.558594 117.648438 139.246094 116.863281 C 140.089844 115.910156 140.957031 115.011719 141.671875 113.960938 " fill-opacity="1" fill-rule="nonzero"/><path fill="#f1e2b3" d="M 141.582031 102.488281 C 142.53125 101.554688 144.007812 103.015625 143.039062 103.960938 C 142.542969 104.445312 141.988281 104.894531 141.488281 105.378906 C 141.101562 105.757812 140.613281 106.222656 140.105469 106.441406 C 139.597656 106.671875 139.011719 106.609375 138.699219 106.066406 C 138.441406 105.636719 138.558594 104.894531 139.070312 104.664062 C 139.535156 104.457031 139.933594 103.976562 140.308594 103.648438 C 140.726562 103.253906 141.167969 102.890625 141.582031 102.488281 " fill-opacity="1" fill-rule="nonzero"/><path fill="#f1e2b3" d="M 135.457031 73.574219 C 136.253906 72.515625 138.042969 73.550781 137.25 74.617188 C 134.691406 78.039062 132.710938 81.773438 130.640625 85.496094 C 129.996094 86.664062 128.207031 85.617188 128.855469 84.445312 C 130.929688 80.710938 132.878906 77.011719 135.457031 73.574219 " fill-opacity="1" fill-rule="nonzero"/><path fill="#f1e2b3" d="M 134.929688 185.433594 C 135.964844 185.433594 135.964844 187.5 134.929688 187.5 C 133.890625 187.5 133.890625 185.433594 134.929688 185.433594 " fill-opacity="1" fill-rule="nonzero"/><path fill="#f1e2b3" d="M 133.113281 188.15625 C 133.632812 188.402344 133.757812 189.117188 133.488281 189.574219 C 133.1875 190.089844 132.582031 190.183594 132.082031 189.945312 C 131.570312 189.703125 131.035156 189.542969 130.527344 189.296875 C 130.007812 189.054688 129.882812 188.328125 130.152344 187.886719 C 130.453125 187.367188 131.050781 187.261719 131.5625 187.511719 C 132.066406 187.753906 132.605469 187.914062 133.113281 188.15625 " fill-opacity="1" fill-rule="nonzero"/><path fill="#f1e2b3" d="M 128.585938 189.429688 C 128.585938 189.363281 128.960938 189.664062 129.050781 189.726562 C 129.269531 189.855469 129.5 189.945312 129.726562 190.0625 C 129.996094 190.195312 130.257812 190.351562 130.527344 190.488281 C 130.785156 190.609375 131.167969 190.582031 131.449219 190.636719 C 132.75 190.929688 132.203125 192.929688 130.902344 192.636719 C 130.320312 192.515625 129.851562 192.484375 129.3125 192.179688 C 128.890625 191.945312 128.425781 191.777344 128.003906 191.519531 C 127.199219 191 126.617188 190.414062 126.511719 189.441406 C 126.441406 188.882812 127.035156 188.402344 127.550781 188.402344 C 128.160156 188.402344 128.515625 188.871094 128.585938 189.429688 " fill-opacity="1" fill-rule="nonzero"/><path fill="#f1e2b3" d="M 131.179688 140.132812 C 132.308594 140.835938 131.257812 142.636719 130.128906 141.914062 C 129.15625 141.300781 128.183594 140.628906 127.339844 139.824219 C 126.691406 139.1875 125.9375 138.320312 125.066406 138.007812 C 123.820312 137.566406 124.363281 135.554688 125.625 136.011719 C 126.703125 136.402344 127.445312 137.152344 128.308594 137.886719 C 129.242188 138.695312 130.128906 139.460938 131.179688 140.132812 " fill-opacity="1" fill-rule="nonzero"/><path fill="#f1e2b3" d="M 131.125 129.808594 C 132.109375 130.707031 130.640625 132.167969 129.664062 131.265625 C 129.488281 131.109375 129.300781 131.019531 129.09375 130.914062 C 127.898438 130.316406 128.949219 128.523438 130.140625 129.125 C 130.503906 129.308594 130.828125 129.527344 131.125 129.808594 " fill-opacity="1" fill-rule="nonzero"/><path fill="#f1e2b3" d="M 130.269531 146.214844 C 131.414062 146.894531 130.378906 148.683594 129.230469 148.003906 C 127.664062 147.082031 125.847656 146.628906 124.484375 145.382812 C 122.964844 144.003906 121.890625 142.195312 120.464844 140.71875 C 119.542969 139.757812 121.003906 138.289062 121.9375 139.253906 C 123.222656 140.601562 124.203125 142.328125 125.574219 143.570312 C 126.949219 144.828125 128.699219 145.292969 130.269531 146.214844 " fill-opacity="1" fill-rule="nonzero"/><path fill="#f1e2b3" d="M 129.882812 133.78125 C 131.097656 134.351562 130.039062 136.148438 128.832031 135.578125 C 126.804688 134.609375 124.664062 133.484375 122.929688 132.042969 C 121.890625 131.195312 123.378906 129.734375 124.390625 130.585938 C 125.289062 131.328125 126.269531 131.824219 127.296875 132.367188 C 128.160156 132.820312 129 133.375 129.882812 133.78125 " fill-opacity="1" fill-rule="nonzero"/><path fill="#f1e2b3" d="M 128.671875 181.816406 C 129.28125 183.382812 126.960938 184.34375 126.070312 183.285156 C 125.949219 183.203125 125.832031 183.101562 125.75 182.96875 C 125.179688 182.15625 125.613281 180.976562 126.609375 180.78125 C 127.507812 180.59375 128.320312 180.933594 128.671875 181.816406 " fill-opacity="1" fill-rule="nonzero"/><path fill="#f1e2b3" d="M 127.820312 149.605469 C 128.347656 149.808594 128.699219 150.289062 128.546875 150.882812 C 128.402344 151.378906 127.796875 151.804688 127.273438 151.597656 C 126.765625 151.414062 126.308594 151.15625 125.859375 150.847656 C 124.753906 150.117188 125.792969 148.320312 126.898438 149.058594 C 127.199219 149.253906 127.492188 149.484375 127.820312 149.605469 " fill-opacity="1" fill-rule="nonzero"/><path fill="#f1e2b3" d="M 125.769531 90.390625 C 126.207031 89.140625 128.207031 89.675781 127.769531 90.941406 C 127.261719 92.394531 126.871094 93.859375 126.476562 95.339844 C 126.113281 96.710938 125.46875 98.203125 125.34375 99.597656 C 125.226562 100.914062 123.160156 100.933594 123.273438 99.597656 C 123.394531 98.179688 123.9375 96.820312 124.300781 95.445312 C 124.753906 93.746094 125.191406 92.046875 125.769531 90.390625 " fill-opacity="1" fill-rule="nonzero"/><path fill="#f1e2b3" d="M 127.492188 169.914062 C 127.648438 170.230469 127.53125 170.535156 127.550781 170.871094 C 127.558594 170.949219 127.570312 171.128906 127.570312 171.191406 C 127.570312 171.347656 127.550781 171.492188 127.519531 171.648438 C 127.3125 172.441406 126.246094 172.722656 125.601562 172.308594 C 125.289062 172.113281 125.125 171.816406 125.042969 171.492188 C 123.5625 171.078125 123.746094 169.109375 125.601562 169.109375 C 126.640625 169.109375 127.078125 169.121094 127.492188 169.914062 " fill-opacity="1" fill-rule="nonzero"/><path fill="#f1e2b3" d="M 126.113281 158.390625 C 126.378906 158.847656 126.476562 159.324219 126.222656 159.847656 C 125.9375 160.460938 125.289062 160.597656 124.679688 160.484375 C 124.390625 160.417969 124.171875 160.199219 124.046875 159.941406 C 124.03125 159.914062 123.988281 159.902344 123.964844 159.882812 C 123.394531 159.167969 123.441406 158.289062 124.238281 157.78125 C 124.859375 157.382812 125.53125 157.644531 125.949219 158.144531 C 125.953125 158.152344 125.964844 158.171875 125.976562 158.183594 C 125.976562 158.191406 125.988281 158.203125 126 158.214844 C 126.039062 158.277344 126.078125 158.328125 126.113281 158.390625 " fill-opacity="1" fill-rule="nonzero"/><path fill="#f1e2b3" d="M 122.371094 148.015625 C 123.417969 148.097656 124.507812 148.964844 123.953125 150.117188 C 123.730469 150.601562 123.273438 150.945312 122.714844 150.894531 C 122.289062 150.847656 121.949219 150.652344 121.585938 150.457031 C 120.925781 150.105469 120.96875 149.390625 121.355469 148.9375 C 121.421875 148.449219 121.847656 147.96875 122.371094 148.015625 " fill-opacity="1" fill-rule="nonzero"/><path fill="#f1e2b3" d="M 121.761719 103.339844 C 122.214844 102.09375 124.226562 102.628906 123.746094 103.886719 C 122.898438 106.15625 121.34375 108.941406 121.730469 111.367188 C 122.042969 113.3125 121.460938 115.171875 120.671875 116.945312 C 120.136719 118.167969 118.34375 117.113281 118.878906 115.910156 C 119.917969 113.578125 119.324219 111.601562 119.621094 109.230469 C 119.875 107.273438 121.0625 105.191406 121.761719 103.339844 " fill-opacity="1" fill-rule="nonzero"/><path fill="#f1e2b3" d="M 120.683594 182.449219 C 120.683594 184.976562 120.214844 187.441406 120.164062 189.957031 C 120.136719 191.292969 118.0625 191.292969 118.097656 189.957031 C 118.140625 187.441406 118.609375 184.976562 118.609375 182.449219 C 118.609375 181.113281 120.683594 181.113281 120.683594 182.449219 " fill-opacity="1" fill-rule="nonzero"/><path fill="#f1e2b3" d="M 120.03125 171.054688 C 120.042969 172.390625 117.96875 172.390625 117.957031 171.054688 C 117.957031 170.742188 117.957031 170.46875 117.871094 170.167969 C 117.515625 168.882812 119.511719 168.332031 119.863281 169.613281 C 119.996094 170.082031 120.03125 170.570312 120.03125 171.054688 " fill-opacity="1" fill-rule="nonzero"/><path fill="#f1e2b3" d="M 118.101562 194.875 C 118.699219 193.671875 120.5 194.730469 119.894531 195.914062 C 119.449219 196.792969 118.492188 197.414062 117.710938 197.972656 C 117.242188 198.296875 116.558594 198.054688 116.289062 197.597656 C 115.988281 197.082031 116.207031 196.5 116.660156 196.183594 C 117.167969 195.832031 117.824219 195.433594 118.101562 194.875 " fill-opacity="1" fill-rule="nonzero"/><path fill="#f1e2b3" d="M 118.050781 128.253906 C 118.488281 128.691406 118.390625 129.269531 118.050781 129.710938 C 117.8125 130.015625 117.398438 130.328125 117.273438 130.691406 C 116.871094 131.949219 114.871094 131.414062 115.285156 130.132812 C 115.519531 129.359375 116.101562 128.863281 116.582031 128.253906 C 116.933594 127.8125 117.6875 127.890625 118.050781 128.253906 " fill-opacity="1" fill-rule="nonzero"/><path fill="#f1e2b3" d="M 114.871094 101.667969 C 115.519531 100.5 117.3125 101.542969 116.652344 102.707031 C 116.320312 103.292969 116.136719 103.960938 115.75 104.519531 C 115.429688 104.984375 114.851562 105.191406 114.328125 104.894531 C 113.875 104.621094 113.636719 103.9375 113.960938 103.484375 C 114.351562 102.914062 114.53125 102.25 114.871094 101.667969 " fill-opacity="1" fill-rule="nonzero"/><path fill="#f1e2b3" d="M 115.117188 121.613281 C 115.5625 121.875 115.832031 122.589844 115.492188 123.039062 C 115.222656 123.378906 115.039062 123.601562 114.613281 123.769531 C 114.082031 123.976562 113.472656 123.542969 113.339844 123.042969 C 113.210938 122.589844 113.402344 122.214844 113.730469 121.964844 C 114.070312 121.535156 114.601562 121.316406 115.117188 121.613281 " fill-opacity="1" fill-rule="nonzero"/><path fill="#f1e2b3" d="M 111.523438 109.035156 C 111.960938 107.777344 113.960938 108.320312 113.523438 109.582031 C 112.769531 111.757812 111.523438 113.589844 110.574219 115.648438 C 110.007812 116.863281 108.21875 115.816406 108.78125 114.613281 C 109.65625 112.707031 110.828125 111.03125 111.523438 109.035156 " fill-opacity="1" fill-rule="nonzero"/><path fill="#f1e2b3" d="M 111.617188 131.589844 C 112.808594 131 113.855469 132.78125 112.652344 133.375 C 110.664062 134.351562 108.175781 133.792969 106.046875 133.777344 C 104.722656 133.765625 104.710938 131.691406 106.046875 131.703125 C 107.058594 131.714844 108.0625 131.785156 109.070312 131.820312 C 109.886719 131.835938 110.863281 131.960938 111.617188 131.589844 " fill-opacity="1" fill-rule="nonzero"/><path fill="#f1e2b3" d="M 110.625 125.011719 C 111.597656 124.101562 113.066406 125.558594 112.09375 126.480469 C 111.753906 126.804688 111.367188 127.0625 110.964844 127.308594 C 110.746094 127.449219 110.324219 127.605469 110.175781 127.816406 C 109.460938 128.949219 107.671875 127.914062 108.394531 126.785156 C 108.933594 125.921875 109.917969 125.675781 110.625 125.011719 " fill-opacity="1" fill-rule="nonzero"/><path fill="#f1e2b3" d="M 110.332031 139.472656 C 110.871094 138.25 112.664062 139.304688 112.121094 140.507812 C 110.929688 143.179688 109.554688 145.671875 108.242188 148.273438 C 107.640625 149.472656 105.851562 148.417969 106.449219 147.238281 C 107.761719 144.628906 109.144531 142.132812 110.332031 139.472656 " fill-opacity="1" fill-rule="nonzero"/><path fill="#f1e2b3" d="M 107.992188 167.433594 C 106.003906 167.433594 104 167.433594 102.015625 167.433594 C 98.742188 167.433594 92.492188 167.433594 90.210938 167.433594 C 89.625 169.273438 89.484375 169.648438 91.644531 169.601562 C 93.144531 169.574219 94.554688 169.769531 96.046875 169.84375 C 99.25 170 102.457031 169.707031 105.644531 170.183594 C 110.5625 170.910156 106.828125 167.433594 107.992188 167.433594 Z M 109.761719 166.511719 C 110.324219 167.980469 110.429688 170.433594 109.847656 171.917969 C 109.722656 172.230469 109.496094 172.59375 109.121094 172.644531 C 106.179688 173.046875 103.0625 172.089844 100.054688 172.089844 C 97.238281 172.078125 94.460938 171.726562 91.644531 171.722656 C 87.738281 171.710938 87.027344 170.632812 88.21875 166.886719 C 88.285156 166.644531 88.429688 166.488281 88.597656 166.367188 C 88.679688 166.035156 88.921875 165.75 89.347656 165.75 C 95.554688 165.75 102.664062 164.917969 108.789062 165.785156 C 109.152344 165.835938 109.644531 166.199219 109.761719 166.511719 " fill-opacity="1" fill-rule="nonzero"/><path fill="#f1e2b3" d="M 107.734375 195.652344 C 109.070312 195.695312 109.070312 197.765625 107.734375 197.726562 C 104.617188 197.628906 101.828125 196.328125 98.910156 195.320312 C 96.925781 194.644531 94.824219 194.148438 92.96875 193.175781 C 91.777344 192.566406 92.824219 190.777344 94.007812 191.398438 C 96.015625 192.441406 98.367188 192.917969 100.503906 193.65625 C 102.914062 194.484375 105.128906 195.566406 107.734375 195.652344 " fill-opacity="1" fill-rule="nonzero"/><path fill="#f1e2b3" d="M 91.714844 121.585938 C 92.007812 120.289062 94.007812 120.835938 93.703125 122.144531 C 93.460938 123.246094 93.136719 124.351562 93.097656 125.492188 C 93.050781 126.828125 90.984375 126.828125 91.023438 125.492188 C 91.074219 124.167969 91.414062 122.882812 91.714844 121.585938 " fill-opacity="1" fill-rule="nonzero"/><path fill="#f1e2b3" d="M 86.796875 155.632812 C 87.1875 154.363281 89.1875 154.910156 88.78125 156.1875 C 88.546875 156.941406 88.039062 157.511719 87.492188 158.070312 C 86.546875 159.015625 85.078125 157.550781 86.015625 156.601562 C 86.300781 156.332031 86.675781 156.019531 86.796875 155.632812 " fill-opacity="1" fill-rule="nonzero"/><path fill="#f1e2b3" d="M 88.308594 118.113281 C 89.347656 118.113281 89.347656 120.1875 88.308594 120.1875 C 87.273438 120.1875 87.273438 118.113281 88.308594 118.113281 " fill-opacity="1" fill-rule="nonzero"/><path fill="#f1e2b3" d="M 86.753906 187.898438 C 87.882812 188.609375 86.847656 190.402344 85.71875 189.6875 C 84.886719 189.167969 83.945312 188.910156 83.125 188.390625 C 81.996094 187.679688 83.035156 185.886719 84.164062 186.601562 C 84.992188 187.121094 85.9375 187.378906 86.753906 187.898438 " fill-opacity="1" fill-rule="nonzero"/><path fill="#f1e2b3" d="M 84.546875 121.097656 C 85.65625 120.355469 86.691406 122.144531 85.589844 122.886719 C 83.253906 124.464844 80.984375 126.152344 78.597656 127.671875 C 77.46875 128.398438 76.4375 126.609375 77.554688 125.894531 C 79.933594 124.367188 82.203125 122.675781 84.546875 121.097656 " fill-opacity="1" fill-rule="nonzero"/></svg>