<svg xmlns="http://www.w3.org/2000/svg" xmlns:xlink="http://www.w3.org/1999/xlink" width="100" zoomAndPan="magnify" viewBox="0 0 75 74.999997" height="100" preserveAspectRatio="xMidYMid meet" version="1.0"><defs><g/><clipPath id="8c610d3a01"><path d="M 13.179688 22.5 L 37.179688 22.5 L 37.179688 52.5 L 13.179688 52.5 Z M 13.179688 22.5 " clip-rule="nonzero"/></clipPath></defs><g clip-path="url(#8c610d3a01)"><path fill="#f1e2b3" d="M 24.378906 37.894531 C 24.269531 41.855469 24.363281 46.023438 24.332031 50.066406 C 24.015625 50.261719 23.816406 50.574219 23.40625 50.671875 L 23.40625 49.878906 C 21.160156 50.019531 18.804688 50.050781 17.167969 50.8125 C 19.261719 51.578125 22.214844 51.75 25.070312 51.75 C 27.933594 51.75 30.875 51.601562 32.925781 50.765625 C 31.320312 50.117188 29.148438 50.039062 27.058594 49.878906 L 27.058594 50.671875 C 26.78125 50.359375 26.246094 50.175781 26.132812 49.785156 C 26.03125 49.429688 26.132812 48.835938 26.132812 48.332031 L 26.132812 37.894531 Z M 23.40625 32.039062 C 23.449219 33.222656 25.3125 33.179688 25.210938 31.898438 C 25.171875 31.40625 24.808594 30.988281 24.101562 31.152344 C 23.675781 31.246094 23.390625 31.535156 23.40625 32.039062 Z M 25.808594 31.382812 C 26.449219 33.242188 24.316406 34.117188 23.269531 33.210938 C 23.140625 33.097656 23.035156 32.882812 22.898438 32.929688 C 22.828125 34.53125 23.796875 35.695312 25.257812 35.785156 C 26.78125 35.878906 28 34.542969 27.980469 33.164062 C 27.964844 31.726562 26.871094 30.6875 25.257812 30.589844 C 25.367188 30.851562 25.691406 31.042969 25.808594 31.382812 Z M 29.277344 29.699219 C 28.816406 30.15625 28.316406 30.570312 27.9375 31.105469 C 29.746094 33.441406 27.851562 37.1875 24.5625 36.394531 C 23.914062 36.238281 23.425781 35.46875 22.992188 36.019531 C 23.1875 36.304688 23.480469 36.492188 23.730469 36.722656 C 24.574219 36.863281 25.695312 36.683594 26.457031 36.675781 C 26.621094 36.671875 26.824219 36.589844 26.871094 36.769531 C 29.5 34.171875 32.378906 31.582031 34.867188 28.996094 C 33.191406 29.421875 31.21875 29.542969 29.277344 29.699219 Z M 22.34375 35.457031 C 22.449219 35.3125 22.570312 35.1875 22.714844 35.082031 C 20.78125 32.019531 24.300781 28.492188 27.195312 30.449219 C 27.4375 30.296875 27.910156 29.898438 27.84375 29.746094 C 23.410156 29.90625 18.707031 29.710938 15.136719 28.996094 C 17.550781 31.136719 19.90625 33.335938 22.34375 35.457031 Z M 32.1875 26.703125 C 31.738281 27.175781 31.199219 27.75 30.753906 28.199219 C 30.621094 28.339844 30.371094 28.4375 30.429688 28.621094 C 32.414062 28.433594 34.453125 28.296875 35.882812 27.546875 C 34.84375 27.066406 33.554688 26.847656 32.1875 26.703125 Z M 23.40625 26.328125 C 20.050781 26.488281 16.722656 26.511719 14.304688 27.59375 C 17.425781 28.699219 22.570312 29.003906 26.917969 28.808594 C 27.5625 28.78125 28.347656 28.90625 28.859375 28.761719 C 29.210938 28.664062 29.703125 28 30.015625 27.6875 C 30.203125 27.496094 30.390625 27.304688 30.570312 27.125 C 30.746094 26.945312 31.046875 26.695312 30.984375 26.5625 C 28.617188 26.332031 25.964844 26.207031 23.40625 26.328125 Z M 33.109375 25.8125 C 34.59375 26.058594 36.167969 26.214844 36.992188 27.125 C 36.96875 27.371094 37.199219 27.757812 37.175781 27.96875 C 37.132812 28.390625 36.402344 28.960938 36.023438 29.324219 C 33.082031 32.140625 29.847656 35.175781 27.058594 37.9375 L 27.058594 49.175781 C 28.898438 49.296875 31.054688 49.390625 32.648438 49.878906 C 33.136719 50.027344 33.8125 50.179688 33.757812 50.859375 C 33.613281 51.542969 32.820312 51.679688 32.140625 51.84375 C 28.765625 52.652344 24.175781 52.617188 20.265625 52.21875 C 19.539062 52.144531 18.835938 52.058594 18.046875 51.890625 C 17.449219 51.761719 16.453125 51.417969 16.335938 51.046875 C 15.949219 49.796875 18.480469 49.621094 19.292969 49.503906 C 20.671875 49.308594 22.007812 49.226562 23.40625 49.175781 C 23.40625 45.730469 23.40625 42.730469 23.40625 39.203125 C 23.40625 38.742188 23.507812 38.132812 23.40625 37.800781 C 23.316406 37.492188 22.570312 36.941406 22.160156 36.582031 C 19.550781 34.285156 17.136719 32.050781 14.535156 29.699219 C 14.136719 29.339844 13.421875 28.890625 13.289062 28.527344 C 13.246094 28.417969 13.136719 27.566406 13.195312 27.3125 C 13.421875 26.296875 15.882812 25.964844 16.984375 25.8125 C 21.199219 25.234375 26.097656 25.136719 30.707031 25.53125 C 31.109375 25.566406 31.589844 25.722656 31.863281 25.671875 C 32.34375 25.585938 33.152344 24.460938 33.480469 24.128906 C 33.992188 23.609375 34.570312 23.003906 35.097656 22.582031 C 35.273438 22.445312 35.683594 22.484375 35.746094 22.816406 C 35.839844 23.339844 34.816406 24.085938 34.496094 24.410156 C 33.917969 24.996094 33.496094 25.351562 33.109375 25.8125 " fill-opacity="1" fill-rule="evenodd"/></g><g fill="#f1e2b3" fill-opacity="1"><g transform="translate(31.97736, 43.18247)"><g><path d="M 1.640625 -4.359375 L 1.640625 0 L 0.546875 0 L 0.546875 -9.703125 L 1.640625 -9.703125 L 1.640625 -5.328125 L 4.015625 -5.328125 L 4.015625 -9.703125 L 5.09375 -9.703125 L 5.09375 0 L 4.015625 0 L 4.015625 -4.359375 Z M 1.640625 -4.359375 "/></g></g></g><g fill="#f1e2b3" fill-opacity="1"><g transform="translate(37.634536, 43.18247)"><g><path d="M 1.65625 -1.953125 L 1.28125 0 L 0.28125 0 L 2.140625 -9.703125 L 3.703125 -9.703125 L 5.5625 0 L 4.46875 0 L 4.109375 -1.953125 Z M 1.78125 -2.875 L 3.953125 -2.875 L 2.859375 -8.484375 Z M 1.78125 -2.875 "/></g></g></g><g fill="#f1e2b3" fill-opacity="1"><g transform="translate(43.485829, 43.18247)"><g><path d="M 2.671875 -9.703125 C 3.441406 -9.703125 3.992188 -9.488281 4.328125 -9.0625 C 4.671875 -8.644531 4.84375 -8.066406 4.84375 -7.328125 L 4.84375 -6.171875 C 4.84375 -5.390625 4.660156 -4.800781 4.296875 -4.40625 C 3.929688 -4.019531 3.363281 -3.828125 2.59375 -3.828125 L 1.640625 -3.828125 L 1.640625 0 L 0.546875 0 L 0.546875 -9.703125 Z M 2.59375 -4.796875 C 3 -4.796875 3.296875 -4.894531 3.484375 -5.09375 C 3.679688 -5.289062 3.78125 -5.625 3.78125 -6.09375 L 3.78125 -7.390625 C 3.78125 -7.828125 3.691406 -8.15625 3.515625 -8.375 C 3.347656 -8.601562 3.066406 -8.71875 2.671875 -8.71875 L 1.640625 -8.71875 L 1.640625 -4.796875 Z M 2.59375 -4.796875 "/></g></g></g><g fill="#f1e2b3" fill-opacity="1"><g transform="translate(48.629975, 43.18247)"><g><path d="M 2.671875 -9.703125 C 3.441406 -9.703125 3.992188 -9.488281 4.328125 -9.0625 C 4.671875 -8.644531 4.84375 -8.066406 4.84375 -7.328125 L 4.84375 -6.171875 C 4.84375 -5.390625 4.660156 -4.800781 4.296875 -4.40625 C 3.929688 -4.019531 3.363281 -3.828125 2.59375 -3.828125 L 1.640625 -3.828125 L 1.640625 0 L 0.546875 0 L 0.546875 -9.703125 Z M 2.59375 -4.796875 C 3 -4.796875 3.296875 -4.894531 3.484375 -5.09375 C 3.679688 -5.289062 3.78125 -5.625 3.78125 -6.09375 L 3.78125 -7.390625 C 3.78125 -7.828125 3.691406 -8.15625 3.515625 -8.375 C 3.347656 -8.601562 3.066406 -8.71875 2.671875 -8.71875 L 1.640625 -8.71875 L 1.640625 -4.796875 Z M 2.59375 -4.796875 "/></g></g></g><g fill="#f1e2b3" fill-opacity="1"><g transform="translate(53.774122, 43.18247)"><g><path d="M 2.265625 -3.484375 L 0.21875 -9.703125 L 1.34375 -9.703125 L 2.859375 -4.9375 L 4.375 -9.703125 L 5.40625 -9.703125 L 3.34375 -3.484375 L 3.34375 0 L 2.265625 0 Z M 2.265625 -3.484375 "/></g></g></g><g fill="#f1e2b3" fill-opacity="1"><g transform="translate(37.011924, 52.13879)"><g><path d="M 1.296875 -3.46875 L 1.296875 0 L 0.4375 0 L 0.4375 -7.703125 L 1.296875 -7.703125 L 1.296875 -4.234375 L 3.1875 -4.234375 L 3.1875 -7.703125 L 4.046875 -7.703125 L 4.046875 0 L 3.1875 0 L 3.1875 -3.46875 Z M 1.296875 -3.46875 "/></g></g></g><g fill="#f1e2b3" fill-opacity="1"><g transform="translate(41.499598, 52.13879)"><g><path d="M 0.375 -5.84375 C 0.375 -6.4375 0.519531 -6.90625 0.8125 -7.25 C 1.101562 -7.601562 1.546875 -7.78125 2.140625 -7.78125 C 2.734375 -7.78125 3.175781 -7.601562 3.46875 -7.25 C 3.757812 -6.90625 3.90625 -6.4375 3.90625 -5.84375 L 3.90625 -1.859375 C 3.90625 -1.273438 3.757812 -0.804688 3.46875 -0.453125 C 3.175781 -0.0976562 2.734375 0.078125 2.140625 0.078125 C 1.546875 0.078125 1.101562 -0.0976562 0.8125 -0.453125 C 0.519531 -0.804688 0.375 -1.273438 0.375 -1.859375 Z M 1.21875 -1.8125 C 1.21875 -1.457031 1.289062 -1.179688 1.4375 -0.984375 C 1.59375 -0.796875 1.828125 -0.703125 2.140625 -0.703125 C 2.453125 -0.703125 2.679688 -0.796875 2.828125 -0.984375 C 2.972656 -1.179688 3.046875 -1.457031 3.046875 -1.8125 L 3.046875 -5.890625 C 3.046875 -6.234375 2.972656 -6.503906 2.828125 -6.703125 C 2.679688 -6.898438 2.453125 -7 2.140625 -7 C 1.828125 -7 1.59375 -6.898438 1.4375 -6.703125 C 1.289062 -6.503906 1.21875 -6.234375 1.21875 -5.890625 Z M 1.21875 -1.8125 "/></g></g></g><g fill="#f1e2b3" fill-opacity="1"><g transform="translate(45.778287, 52.13879)"><g><path d="M 1.25 -1.8125 C 1.25 -1.457031 1.320312 -1.179688 1.46875 -0.984375 C 1.613281 -0.796875 1.84375 -0.703125 2.15625 -0.703125 C 2.46875 -0.703125 2.691406 -0.796875 2.828125 -0.984375 C 2.972656 -1.179688 3.046875 -1.457031 3.046875 -1.8125 L 3.046875 -7.703125 L 3.84375 -7.703125 L 3.84375 -1.859375 C 3.84375 -1.273438 3.703125 -0.800781 3.421875 -0.4375 C 3.148438 -0.0820312 2.71875 0.09375 2.125 0.09375 C 1.539062 0.09375 1.109375 -0.0820312 0.828125 -0.4375 C 0.546875 -0.800781 0.40625 -1.273438 0.40625 -1.859375 L 0.40625 -7.703125 L 1.25 -7.703125 Z M 1.25 -1.8125 "/></g></g></g><g fill="#f1e2b3" fill-opacity="1"><g transform="translate(50.034978, 52.13879)"><g><path d="M 2.15625 -7.703125 C 2.757812 -7.703125 3.195312 -7.550781 3.46875 -7.25 C 3.738281 -6.945312 3.875 -6.507812 3.875 -5.9375 L 3.875 -5.3125 C 3.875 -4.882812 3.796875 -4.539062 3.640625 -4.28125 C 3.484375 -4.019531 3.242188 -3.835938 2.921875 -3.734375 C 3.265625 -3.628906 3.507812 -3.4375 3.65625 -3.15625 C 3.8125 -2.882812 3.890625 -2.539062 3.890625 -2.125 L 3.890625 -0.921875 C 3.890625 -0.753906 3.894531 -0.59375 3.90625 -0.4375 C 3.914062 -0.28125 3.957031 -0.132812 4.03125 0 L 3.171875 0 C 3.117188 -0.113281 3.082031 -0.234375 3.0625 -0.359375 C 3.039062 -0.484375 3.03125 -0.675781 3.03125 -0.9375 L 3.03125 -2.140625 C 3.03125 -2.578125 2.929688 -2.875 2.734375 -3.03125 C 2.535156 -3.195312 2.257812 -3.28125 1.90625 -3.28125 L 1.296875 -3.28125 L 1.296875 0 L 0.4375 0 L 0.4375 -7.703125 Z M 1.9375 -4.0625 C 2.28125 -4.0625 2.546875 -4.132812 2.734375 -4.28125 C 2.929688 -4.425781 3.03125 -4.707031 3.03125 -5.125 L 3.03125 -5.859375 C 3.03125 -6.210938 2.960938 -6.476562 2.828125 -6.65625 C 2.691406 -6.832031 2.460938 -6.921875 2.140625 -6.921875 L 1.296875 -6.921875 L 1.296875 -4.0625 Z M 1.9375 -4.0625 "/></g></g></g></svg>