<svg xmlns="http://www.w3.org/2000/svg" xmlns:xlink="http://www.w3.org/1999/xlink" width="500" zoomAndPan="magnify" viewBox="0 0 375 374.999991" height="500" preserveAspectRatio="xMidYMid meet" version="1.0"><defs><g/><clipPath id="4aff938d05"><path d="M 21.894531 69.882812 L 353.394531 69.882812 L 353.394531 236.382812 L 21.894531 236.382812 Z M 21.894531 69.882812 " clip-rule="nonzero"/></clipPath><clipPath id="a2067499f3"><path d="M 118.574219 89.066406 L 256.574219 89.066406 L 256.574219 236.816406 L 118.574219 236.816406 Z M 118.574219 89.066406 " clip-rule="nonzero"/></clipPath></defs><g clip-path="url(#4aff938d05)"><path fill="#37414f" d="M 187.644531 69.882812 C 96.289062 69.882812 21.917969 144.054688 21.917969 235.164062 C 21.917969 235.8125 22.488281 236.382812 23.140625 236.382812 L 352.148438 236.382812 C 352.800781 236.382812 353.371094 235.8125 353.371094 235.164062 C 353.371094 144.054688 279 69.882812 187.644531 69.882812 Z M 24.367188 233.941406 C 25.019531 144.707031 98.003906 72.328125 187.644531 72.328125 C 277.285156 72.328125 350.269531 144.707031 350.921875 233.941406 Z M 24.367188 233.941406 " fill-opacity="1" fill-rule="nonzero"/></g><path fill="#37414f" d="M 184.59375 158.019531 L 180.964844 158.019531 L 148.484375 121.132812 L 159.542969 121.132812 C 158.699219 122.582031 158.179688 124.253906 158.179688 126.050781 C 158.179688 131.476562 162.589844 135.886719 168.019531 135.886719 C 173.449219 135.886719 177.859375 131.476562 177.859375 126.050781 C 177.859375 124.253906 177.339844 122.582031 176.496094 121.132812 L 217.074219 121.132812 Z M 172.941406 126.050781 C 172.941406 128.757812 170.730469 130.96875 168.019531 130.96875 C 165.308594 130.96875 163.101562 128.757812 163.101562 126.050781 C 163.101562 123.339844 165.308594 121.132812 168.019531 121.132812 C 170.730469 121.132812 172.941406 123.339844 172.941406 126.050781 Z M 224.75 117.664062 C 224.355469 116.78125 223.472656 116.214844 222.511719 116.214844 L 143.046875 116.214844 C 142.085938 116.214844 141.203125 116.78125 140.808594 117.664062 C 140.414062 118.539062 140.566406 119.574219 141.203125 120.296875 L 178.003906 162.105469 C 178.464844 162.632812 179.148438 162.941406 179.847656 162.941406 L 185.710938 162.941406 C 186.410156 162.941406 187.09375 162.632812 187.554688 162.105469 L 224.355469 120.296875 C 224.992188 119.574219 225.144531 118.539062 224.75 117.664062 " fill-opacity="1" fill-rule="nonzero"/><g clip-path="url(#a2067499f3)"><path fill="#37414f" d="M 234.4375 128.507812 C 232.9375 128.507812 231.46875 128.296875 230.054688 127.921875 L 246.082031 110.496094 C 246.746094 109.785156 246.917969 108.738281 246.523438 107.84375 C 246.140625 106.953125 245.257812 106.375 244.277344 106.375 L 217.9375 106.375 C 220.070312 99.199219 226.722656 94.078125 234.4375 94.078125 C 243.929688 94.078125 251.65625 101.804688 251.65625 111.292969 C 251.65625 120.785156 243.929688 128.507812 234.4375 128.507812 Z M 185.890625 168.65625 C 185.46875 169.109375 185.238281 169.703125 185.238281 170.316406 L 185.238281 219.503906 C 185.238281 220.628906 186.007812 221.617188 187.101562 221.886719 L 196.546875 224.25 C 203.429688 225.96875 210.460938 227.34375 217.46875 228.351562 L 220.859375 228.832031 C 221.589844 228.9375 222.136719 229.574219 222.136719 230.3125 C 222.136719 231.128906 221.464844 231.800781 220.648438 231.800781 L 147.371094 231.800781 C 146.554688 231.800781 145.878906 231.128906 145.878906 230.3125 C 145.878906 229.574219 146.429688 228.9375 147.167969 228.832031 C 156.449219 227.507812 165.734375 225.527344 174.746094 222.953125 L 178.53125 221.867188 C 179.589844 221.570312 180.320312 220.601562 180.320312 219.503906 L 180.320312 170.316406 C 180.320312 169.703125 180.089844 169.109375 179.664062 168.65625 L 126.894531 111.292969 L 238.664062 111.292969 Z M 234.4375 89.160156 C 224.03125 89.160156 215.113281 96.421875 212.855469 106.375 L 121.28125 106.375 C 120.3125 106.375 119.417969 106.953125 119.023438 107.84375 C 118.640625 108.738281 118.8125 109.785156 119.464844 110.496094 L 175.398438 171.277344 L 175.398438 217.652344 L 173.390625 218.226562 C 164.589844 220.734375 155.539062 222.664062 146.46875 223.960938 C 143.324219 224.414062 140.960938 227.140625 140.960938 230.3125 C 140.960938 233.847656 143.835938 236.71875 147.371094 236.71875 L 220.648438 236.71875 C 224.183594 236.71875 227.058594 233.847656 227.058594 230.3125 C 227.058594 227.140625 224.695312 224.414062 221.550781 223.960938 L 218.167969 223.480469 C 211.328125 222.5 204.457031 221.15625 197.742188 219.476562 L 190.160156 217.582031 L 190.160156 171.277344 L 226.394531 131.902344 C 228.960938 132.890625 231.640625 133.429688 234.4375 133.429688 C 246.648438 133.429688 256.574219 123.496094 256.574219 111.292969 C 256.574219 99.09375 246.648438 89.160156 234.4375 89.160156 " fill-opacity="1" fill-rule="nonzero"/></g><path fill="#37414f" d="M 182.777344 140.804688 C 184.132812 140.804688 185.238281 141.910156 185.238281 143.265625 C 185.238281 144.621094 184.132812 145.726562 182.777344 145.726562 C 181.425781 145.726562 180.320312 144.621094 180.320312 143.265625 C 180.320312 141.910156 181.425781 140.804688 182.777344 140.804688 Z M 175.398438 143.265625 C 175.398438 147.339844 178.703125 150.644531 182.777344 150.644531 C 186.851562 150.644531 190.160156 147.339844 190.160156 143.265625 C 190.160156 139.191406 186.851562 135.886719 182.777344 135.886719 C 178.703125 135.886719 175.398438 139.191406 175.398438 143.265625 " fill-opacity="1" fill-rule="nonzero"/><g fill="#37414f" fill-opacity="1"><g transform="translate(80.980973, 284.520289)"><g><path d="M 40.3125 -39.8125 L 42.046875 -39.8125 L 42.046875 0 L 40.3125 0 Z M 2.234375 -39.8125 L 3.96875 -39.8125 L 3.96875 0 L 2.234375 0 Z M 36.859375 -39.8125 L 38.578125 -39.8125 L 38.578125 0 L 36.859375 0 Z M 33.390625 -39.8125 L 35.125 -39.8125 L 35.125 0 L 33.390625 0 Z M 29.9375 -39.8125 L 31.65625 -39.8125 L 31.65625 0 L 29.9375 0 L 29.9375 -15.609375 L 14.359375 -15.609375 L 14.359375 0 L 12.625 0 L 12.625 -39.8125 L 14.359375 -39.8125 L 14.359375 -24.25 L 29.9375 -24.25 Z M 9.15625 -39.8125 L 10.890625 -39.8125 L 10.890625 0 L 9.15625 0 Z M 5.703125 -39.8125 L 7.421875 -39.8125 L 7.421875 0 L 5.703125 0 Z M 29.9375 -17.328125 L 29.9375 -19.0625 L 14.359375 -19.0625 L 14.359375 -17.328125 Z M 29.9375 -20.796875 L 29.9375 -22.53125 L 14.359375 -22.53125 L 14.359375 -20.796875 Z M 29.9375 -20.796875 "/></g></g></g><g fill="#37414f" fill-opacity="1"><g transform="translate(125.345136, 284.520289)"><g><path d="M 19.421875 -11.6875 L 20.125 -13.421875 L 26.03125 -13.421875 L 26.734375 -11.6875 Z M 18.078125 -8.21875 L 18.75 -9.953125 L 27.375 -9.953125 L 28.125 -8.21875 Z M 16.734375 -4.765625 L 17.40625 -6.484375 L 28.75 -6.484375 L 29.46875 -4.765625 Z M 2.671875 0 L 0.796875 0 L 16.546875 -39.8125 L 18.421875 -39.8125 L 34.140625 0 L 32.28125 0 L 17.484375 -37.484375 Z M 17.6875 -33.375 L 18.671875 -31.15625 L 6.375 0 L 4.515625 0 Z M 19.609375 -28.796875 L 20.53125 -26.421875 L 10.125 0 L 8.25 0 Z M 21.4375 -24.046875 L 22.359375 -21.609375 L 13.828125 0 L 11.96875 0 Z M 45.3125 0 L 43.4375 0 L 27.71875 -39.8125 L 29.5625 -39.8125 Z M 25.84375 -39.8125 L 41.59375 0 L 39.734375 0 L 23.984375 -39.8125 Z M 22.109375 -39.8125 L 37.859375 0 L 35.984375 0 L 20.265625 -39.8125 Z M 22.109375 -39.8125 "/></g></g></g><g fill="#37414f" fill-opacity="1"><g transform="translate(171.439647, 284.520289)"><g><path d="M 15.703125 -18.84375 L 25.75 -18.84375 C 27.394531 -18.84375 28.789062 -19.398438 29.9375 -20.515625 C 31.082031 -21.628906 31.65625 -23.207031 31.65625 -25.25 C 31.65625 -26.769531 31.054688 -28.132812 29.859375 -29.34375 C 28.660156 -30.550781 27.289062 -31.15625 25.75 -31.15625 L 10.890625 -31.15625 L 10.890625 0 L 9.15625 0 L 9.15625 -32.890625 L 25.75 -32.890625 C 27.769531 -32.890625 29.546875 -32.109375 31.078125 -30.546875 C 32.617188 -28.992188 33.390625 -27.226562 33.390625 -25.25 C 33.390625 -22.789062 32.644531 -20.816406 31.15625 -19.328125 C 29.664062 -17.847656 27.863281 -17.109375 25.75 -17.109375 L 15.703125 -17.109375 Z M 15.703125 -15.390625 L 25.75 -15.390625 C 27.414062 -15.390625 28.957031 -15.789062 30.375 -16.59375 C 31.789062 -17.40625 32.9375 -18.570312 33.8125 -20.09375 C 34.6875 -21.613281 35.125 -23.332031 35.125 -25.25 C 35.125 -27.707031 34.179688 -29.882812 32.296875 -31.78125 C 30.410156 -33.675781 28.226562 -34.625 25.75 -34.625 L 7.421875 -34.625 L 7.421875 0 L 5.703125 0 L 5.703125 -36.34375 L 25.75 -36.34375 C 27.6875 -36.34375 29.507812 -35.828125 31.21875 -34.796875 C 32.9375 -33.773438 34.304688 -32.40625 35.328125 -30.6875 C 36.347656 -28.976562 36.859375 -27.164062 36.859375 -25.25 C 36.859375 -23.0625 36.34375 -21.070312 35.3125 -19.28125 C 34.289062 -17.5 32.929688 -16.113281 31.234375 -15.125 C 29.546875 -14.144531 27.71875 -13.65625 25.75 -13.65625 L 15.703125 -13.65625 Z M 15.703125 -11.921875 L 25.75 -11.921875 C 27.457031 -11.921875 29.097656 -12.257812 30.671875 -12.9375 C 32.242188 -13.625 33.609375 -14.546875 34.765625 -15.703125 C 35.929688 -16.867188 36.859375 -18.28125 37.546875 -19.9375 C 38.234375 -21.59375 38.578125 -23.363281 38.578125 -25.25 C 38.578125 -27.488281 37.992188 -29.597656 36.828125 -31.578125 C 35.660156 -33.554688 34.085938 -35.132812 32.109375 -36.3125 C 30.128906 -37.488281 28.007812 -38.078125 25.75 -38.078125 L 3.96875 -38.078125 L 3.96875 0 L 2.234375 0 L 2.234375 -39.8125 L 25.75 -39.8125 C 28.3125 -39.8125 30.710938 -39.140625 32.953125 -37.796875 C 35.203125 -36.460938 36.988281 -34.671875 38.3125 -32.421875 C 39.644531 -30.179688 40.3125 -27.789062 40.3125 -25.25 C 40.3125 -22.96875 39.914062 -20.867188 39.125 -18.953125 C 38.34375 -17.035156 37.285156 -15.441406 35.953125 -14.171875 C 34.628906 -12.910156 33.085938 -11.929688 31.328125 -11.234375 C 29.566406 -10.535156 27.707031 -10.1875 25.75 -10.1875 L 15.703125 -10.1875 Z M 14.359375 0 L 12.625 0 L 12.625 -29.421875 L 25.75 -29.421875 C 26.882812 -29.421875 27.863281 -29.003906 28.6875 -28.171875 C 29.519531 -27.335938 29.9375 -26.363281 29.9375 -25.25 C 29.9375 -22.132812 28.539062 -20.578125 25.75 -20.578125 L 15.703125 -20.578125 L 15.703125 -22.3125 L 25.75 -22.3125 C 26.519531 -22.3125 27.117188 -22.523438 27.546875 -22.953125 C 27.984375 -23.390625 28.203125 -24.15625 28.203125 -25.25 C 28.203125 -25.945312 27.960938 -26.523438 27.484375 -26.984375 C 27.015625 -27.453125 26.4375 -27.6875 25.75 -27.6875 L 14.359375 -27.6875 Z M 14.359375 0 "/></g></g></g><g fill="#37414f" fill-opacity="1"><g transform="translate(213.30442, 284.520289)"><g><path d="M 15.703125 -18.84375 L 25.75 -18.84375 C 27.394531 -18.84375 28.789062 -19.398438 29.9375 -20.515625 C 31.082031 -21.628906 31.65625 -23.207031 31.65625 -25.25 C 31.65625 -26.769531 31.054688 -28.132812 29.859375 -29.34375 C 28.660156 -30.550781 27.289062 -31.15625 25.75 -31.15625 L 10.890625 -31.15625 L 10.890625 0 L 9.15625 0 L 9.15625 -32.890625 L 25.75 -32.890625 C 27.769531 -32.890625 29.546875 -32.109375 31.078125 -30.546875 C 32.617188 -28.992188 33.390625 -27.226562 33.390625 -25.25 C 33.390625 -22.789062 32.644531 -20.816406 31.15625 -19.328125 C 29.664062 -17.847656 27.863281 -17.109375 25.75 -17.109375 L 15.703125 -17.109375 Z M 15.703125 -15.390625 L 25.75 -15.390625 C 27.414062 -15.390625 28.957031 -15.789062 30.375 -16.59375 C 31.789062 -17.40625 32.9375 -18.570312 33.8125 -20.09375 C 34.6875 -21.613281 35.125 -23.332031 35.125 -25.25 C 35.125 -27.707031 34.179688 -29.882812 32.296875 -31.78125 C 30.410156 -33.675781 28.226562 -34.625 25.75 -34.625 L 7.421875 -34.625 L 7.421875 0 L 5.703125 0 L 5.703125 -36.34375 L 25.75 -36.34375 C 27.6875 -36.34375 29.507812 -35.828125 31.21875 -34.796875 C 32.9375 -33.773438 34.304688 -32.40625 35.328125 -30.6875 C 36.347656 -28.976562 36.859375 -27.164062 36.859375 -25.25 C 36.859375 -23.0625 36.34375 -21.070312 35.3125 -19.28125 C 34.289062 -17.5 32.929688 -16.113281 31.234375 -15.125 C 29.546875 -14.144531 27.71875 -13.65625 25.75 -13.65625 L 15.703125 -13.65625 Z M 15.703125 -11.921875 L 25.75 -11.921875 C 27.457031 -11.921875 29.097656 -12.257812 30.671875 -12.9375 C 32.242188 -13.625 33.609375 -14.546875 34.765625 -15.703125 C 35.929688 -16.867188 36.859375 -18.28125 37.546875 -19.9375 C 38.234375 -21.59375 38.578125 -23.363281 38.578125 -25.25 C 38.578125 -27.488281 37.992188 -29.597656 36.828125 -31.578125 C 35.660156 -33.554688 34.085938 -35.132812 32.109375 -36.3125 C 30.128906 -37.488281 28.007812 -38.078125 25.75 -38.078125 L 3.96875 -38.078125 L 3.96875 0 L 2.234375 0 L 2.234375 -39.8125 L 25.75 -39.8125 C 28.3125 -39.8125 30.710938 -39.140625 32.953125 -37.796875 C 35.203125 -36.460938 36.988281 -34.671875 38.3125 -32.421875 C 39.644531 -30.179688 40.3125 -27.789062 40.3125 -25.25 C 40.3125 -22.96875 39.914062 -20.867188 39.125 -18.953125 C 38.34375 -17.035156 37.285156 -15.441406 35.953125 -14.171875 C 34.628906 -12.910156 33.085938 -11.929688 31.328125 -11.234375 C 29.566406 -10.535156 27.707031 -10.1875 25.75 -10.1875 L 15.703125 -10.1875 Z M 14.359375 0 L 12.625 0 L 12.625 -29.421875 L 25.75 -29.421875 C 26.882812 -29.421875 27.863281 -29.003906 28.6875 -28.171875 C 29.519531 -27.335938 29.9375 -26.363281 29.9375 -25.25 C 29.9375 -22.132812 28.539062 -20.578125 25.75 -20.578125 L 15.703125 -20.578125 L 15.703125 -22.3125 L 25.75 -22.3125 C 26.519531 -22.3125 27.117188 -22.523438 27.546875 -22.953125 C 27.984375 -23.390625 28.203125 -24.15625 28.203125 -25.25 C 28.203125 -25.945312 27.960938 -26.523438 27.484375 -26.984375 C 27.015625 -27.453125 26.4375 -27.6875 25.75 -27.6875 L 14.359375 -27.6875 Z M 14.359375 0 "/></g></g></g><g fill="#37414f" fill-opacity="1"><g transform="translate(255.169194, 284.520289)"><g><path d="M 15.546875 -20.03125 L 14.6875 -18.125 L 4.296875 -39.8125 L 6.03125 -39.8125 Z M 17.28125 -23.828125 L 16.390625 -21.921875 L 7.765625 -39.8125 L 9.5 -39.8125 Z M 19.015625 -27.59375 L 18.15625 -25.703125 L 11.234375 -39.8125 L 12.953125 -39.8125 Z M 16.828125 -13.421875 L 29.359375 -39.8125 L 31.078125 -39.8125 L 18.5625 -13.421875 L 18.5625 0 L 16.828125 0 Z M 20.296875 -13.421875 L 32.8125 -39.8125 L 34.546875 -39.8125 L 22.015625 -13.421875 L 22.015625 0 L 20.296875 0 Z M 23.75 -13.421875 L 36.28125 -39.8125 L 38 -39.8125 L 25.484375 -13.421875 L 25.484375 0 L 23.75 0 Z M 14.234375 -15.234375 L 25.890625 -39.8125 L 27.625 -39.8125 L 15.09375 -13.421875 L 15.09375 0 L 13.359375 0 L 13.359375 -13.421875 L 0.84375 -39.8125 L 2.578125 -39.8125 Z M 14.234375 -15.234375 "/></g></g></g><g fill="#37414f" fill-opacity="1"><g transform="translate(99.297378, 343.020285)"><g><path d="M 40.3125 -39.8125 L 42.046875 -39.8125 L 42.046875 0 L 40.3125 0 Z M 2.234375 -39.8125 L 3.96875 -39.8125 L 3.96875 0 L 2.234375 0 Z M 36.859375 -39.8125 L 38.578125 -39.8125 L 38.578125 0 L 36.859375 0 Z M 33.390625 -39.8125 L 35.125 -39.8125 L 35.125 0 L 33.390625 0 Z M 29.9375 -39.8125 L 31.65625 -39.8125 L 31.65625 0 L 29.9375 0 L 29.9375 -15.609375 L 14.359375 -15.609375 L 14.359375 0 L 12.625 0 L 12.625 -39.8125 L 14.359375 -39.8125 L 14.359375 -24.25 L 29.9375 -24.25 Z M 9.15625 -39.8125 L 10.890625 -39.8125 L 10.890625 0 L 9.15625 0 Z M 5.703125 -39.8125 L 7.421875 -39.8125 L 7.421875 0 L 5.703125 0 Z M 29.9375 -17.328125 L 29.9375 -19.0625 L 14.359375 -19.0625 L 14.359375 -17.328125 Z M 29.9375 -20.796875 L 29.9375 -22.53125 L 14.359375 -22.53125 L 14.359375 -20.796875 Z M 29.9375 -20.796875 "/></g></g></g><g fill="#37414f" fill-opacity="1"><g transform="translate(143.661541, 343.020285)"><g><path d="M 16.25 -26.625 C 14.394531 -24.769531 13.46875 -22.53125 13.46875 -19.90625 C 13.46875 -17.28125 14.394531 -15.035156 16.25 -13.171875 C 18.113281 -11.316406 20.359375 -10.390625 22.984375 -10.390625 C 25.609375 -10.390625 27.847656 -11.316406 29.703125 -13.171875 C 31.566406 -15.035156 32.5 -17.28125 32.5 -19.90625 C 32.5 -22.53125 31.566406 -24.769531 29.703125 -26.625 C 27.847656 -28.488281 25.609375 -29.421875 22.984375 -29.421875 C 20.359375 -29.421875 18.113281 -28.488281 16.25 -26.625 Z M 12.625 -15.546875 C 12.03125 -16.929688 11.734375 -18.382812 11.734375 -19.90625 C 11.734375 -21.425781 12.03125 -22.878906 12.625 -24.265625 C 13.21875 -25.648438 14.019531 -26.847656 15.03125 -27.859375 C 16.039062 -28.867188 17.238281 -29.671875 18.625 -30.265625 C 20.007812 -30.859375 21.460938 -31.15625 22.984375 -31.15625 C 24.503906 -31.15625 25.957031 -30.859375 27.34375 -30.265625 C 28.726562 -29.671875 29.925781 -28.867188 30.9375 -27.859375 C 31.945312 -26.847656 32.75 -25.648438 33.34375 -24.265625 C 33.9375 -22.878906 34.234375 -21.425781 34.234375 -19.90625 C 34.234375 -18.382812 33.9375 -16.929688 33.34375 -15.546875 C 32.75 -14.160156 31.945312 -12.960938 30.9375 -11.953125 C 29.925781 -10.941406 28.726562 -10.140625 27.34375 -9.546875 C 25.957031 -8.953125 24.503906 -8.65625 22.984375 -8.65625 C 21.460938 -8.65625 20.007812 -8.953125 18.625 -9.546875 C 17.238281 -10.140625 16.039062 -10.941406 15.03125 -11.953125 C 14.019531 -12.960938 13.21875 -14.160156 12.625 -15.546875 Z M 11.734375 -26.421875 C 10.578125 -24.429688 10 -22.257812 10 -19.90625 C 10 -17.550781 10.578125 -15.378906 11.734375 -13.390625 C 12.898438 -11.398438 14.476562 -9.820312 16.46875 -8.65625 C 18.457031 -7.5 20.628906 -6.921875 22.984375 -6.921875 C 25.335938 -6.921875 27.507812 -7.5 29.5 -8.65625 C 31.488281 -9.820312 33.0625 -11.398438 34.21875 -13.390625 C 35.382812 -15.378906 35.96875 -17.550781 35.96875 -19.90625 C 35.96875 -22.257812 35.382812 -24.429688 34.21875 -26.421875 C 33.0625 -28.410156 31.488281 -29.984375 29.5 -31.140625 C 27.507812 -32.304688 25.335938 -32.890625 22.984375 -32.890625 C 20.628906 -32.890625 18.457031 -32.304688 16.46875 -31.140625 C 14.476562 -29.984375 12.898438 -28.410156 11.734375 -26.421875 Z M 10.234375 -12.53125 C 8.921875 -14.789062 8.265625 -17.25 8.265625 -19.90625 C 8.265625 -22.5625 8.921875 -25.019531 10.234375 -27.28125 C 11.554688 -29.539062 13.34375 -31.328125 15.59375 -32.640625 C 17.851562 -33.960938 20.3125 -34.625 22.96875 -34.625 C 25.632812 -34.625 28.097656 -33.960938 30.359375 -32.640625 C 32.617188 -31.328125 34.40625 -29.539062 35.71875 -27.28125 C 37.03125 -25.019531 37.6875 -22.5625 37.6875 -19.90625 C 37.6875 -17.25 37.03125 -14.789062 35.71875 -12.53125 C 34.40625 -10.269531 32.617188 -8.476562 30.359375 -7.15625 C 28.097656 -5.84375 25.632812 -5.1875 22.96875 -5.1875 C 20.3125 -5.1875 17.851562 -5.84375 15.59375 -7.15625 C 13.34375 -8.476562 11.554688 -10.269531 10.234375 -12.53125 Z M 7.828125 -26.296875 C 6.960938 -24.265625 6.53125 -22.132812 6.53125 -19.90625 C 6.53125 -17.675781 6.960938 -15.539062 7.828125 -13.5 C 8.703125 -11.46875 9.867188 -9.71875 11.328125 -8.25 C 12.796875 -6.789062 14.546875 -5.628906 16.578125 -4.765625 C 18.617188 -3.898438 20.753906 -3.46875 22.984375 -3.46875 C 25.210938 -3.46875 27.34375 -3.898438 29.375 -4.765625 C 31.414062 -5.628906 33.164062 -6.789062 34.625 -8.25 C 36.09375 -9.71875 37.257812 -11.46875 38.125 -13.5 C 38.988281 -15.539062 39.421875 -17.675781 39.421875 -19.90625 C 39.421875 -22.132812 38.988281 -24.265625 38.125 -26.296875 C 37.257812 -28.335938 36.09375 -30.085938 34.625 -31.546875 C 33.164062 -33.015625 31.414062 -34.179688 29.375 -35.046875 C 27.34375 -35.910156 25.210938 -36.34375 22.984375 -36.34375 C 20.753906 -36.34375 18.617188 -35.910156 16.578125 -35.046875 C 14.546875 -34.179688 12.796875 -33.015625 11.328125 -31.546875 C 9.867188 -30.085938 8.703125 -28.335938 7.828125 -26.296875 Z M 7.25 -10.796875 C 5.625 -13.585938 4.8125 -16.625 4.8125 -19.90625 C 4.8125 -23.1875 5.625 -26.222656 7.25 -29.015625 C 8.875 -31.804688 11.078125 -34.015625 13.859375 -35.640625 C 16.648438 -37.265625 19.6875 -38.078125 22.96875 -38.078125 C 26.257812 -38.078125 29.300781 -37.265625 32.09375 -35.640625 C 34.882812 -34.015625 37.09375 -31.804688 38.71875 -29.015625 C 40.34375 -26.222656 41.15625 -23.1875 41.15625 -19.90625 C 41.15625 -16.625 40.34375 -13.585938 38.71875 -10.796875 C 37.09375 -8.003906 34.882812 -5.796875 32.09375 -4.171875 C 29.300781 -2.546875 26.257812 -1.734375 22.96875 -1.734375 C 19.6875 -1.734375 16.648438 -2.546875 13.859375 -4.171875 C 11.078125 -5.796875 8.875 -8.003906 7.25 -10.796875 Z M 4.640625 -27.625 C 3.597656 -25.164062 3.078125 -22.585938 3.078125 -19.890625 C 3.078125 -17.203125 3.597656 -14.628906 4.640625 -12.171875 C 5.691406 -9.710938 7.109375 -7.59375 8.890625 -5.8125 C 10.671875 -4.039062 12.789062 -2.628906 15.25 -1.578125 C 17.707031 -0.523438 20.28125 0 22.96875 0 C 25.664062 0 28.242188 -0.523438 30.703125 -1.578125 C 33.171875 -2.628906 35.289062 -4.039062 37.0625 -5.8125 C 38.84375 -7.59375 40.257812 -9.710938 41.3125 -12.171875 C 42.363281 -14.628906 42.890625 -17.203125 42.890625 -19.890625 C 42.890625 -22.585938 42.363281 -25.164062 41.3125 -27.625 C 40.257812 -30.09375 38.84375 -32.210938 37.0625 -33.984375 C 35.289062 -35.765625 33.171875 -37.179688 30.703125 -38.234375 C 28.242188 -39.285156 25.664062 -39.8125 22.96875 -39.8125 C 20.28125 -39.8125 17.707031 -39.285156 15.25 -38.234375 C 12.789062 -37.179688 10.671875 -35.765625 8.890625 -33.984375 C 7.109375 -32.210938 5.691406 -30.09375 4.640625 -27.625 Z M 3.0625 -11.5 C 1.914062 -14.164062 1.34375 -16.960938 1.34375 -19.890625 C 1.34375 -22.828125 1.914062 -25.628906 3.0625 -28.296875 C 4.207031 -30.972656 5.742188 -33.273438 7.671875 -35.203125 C 9.609375 -37.140625 11.910156 -38.679688 14.578125 -39.828125 C 17.242188 -40.972656 20.039062 -41.546875 22.96875 -41.546875 C 25.90625 -41.546875 28.707031 -40.972656 31.375 -39.828125 C 34.050781 -38.679688 36.351562 -37.140625 38.28125 -35.203125 C 40.21875 -33.273438 41.757812 -30.972656 42.90625 -28.296875 C 44.050781 -25.628906 44.625 -22.828125 44.625 -19.890625 C 44.625 -16.960938 44.050781 -14.164062 42.90625 -11.5 C 41.757812 -8.832031 40.21875 -6.53125 38.28125 -4.59375 C 36.351562 -2.664062 34.050781 -1.128906 31.375 0.015625 C 28.707031 1.160156 25.90625 1.734375 22.96875 1.734375 C 20.039062 1.734375 17.242188 1.160156 14.578125 0.015625 C 11.910156 -1.128906 9.609375 -2.664062 7.671875 -4.59375 C 5.742188 -6.53125 4.207031 -8.832031 3.0625 -11.5 Z M 3.0625 -11.5 "/></g></g></g><g fill="#37414f" fill-opacity="1"><g transform="translate(189.611856, 343.020285)"><g><path d="M 30.265625 -17.5 L 30.265625 -39.8125 L 32 -39.8125 L 32 -17.5 C 32 -15.0625 31.035156 -12.976562 29.109375 -11.25 C 27.191406 -9.519531 24.882812 -8.65625 22.1875 -8.65625 C 19.5 -8.65625 17.191406 -9.519531 15.265625 -11.25 C 13.335938 -12.976562 12.375 -15.0625 12.375 -17.5 L 12.375 -39.8125 L 14.109375 -39.8125 L 14.109375 -17.5 C 14.109375 -15.539062 14.894531 -13.863281 16.46875 -12.46875 C 18.050781 -11.082031 19.957031 -10.390625 22.1875 -10.390625 C 24.414062 -10.390625 26.316406 -11.082031 27.890625 -12.46875 C 29.472656 -13.863281 30.265625 -15.539062 30.265625 -17.5 Z M 33.734375 -17.5 L 33.734375 -39.8125 L 35.453125 -39.8125 L 35.453125 -17.5 C 35.453125 -15.832031 35.097656 -14.238281 34.390625 -12.71875 C 33.691406 -11.207031 32.75 -9.898438 31.5625 -8.796875 C 30.375 -7.691406 28.960938 -6.8125 27.328125 -6.15625 C 25.691406 -5.507812 23.976562 -5.1875 22.1875 -5.1875 C 20.394531 -5.1875 18.679688 -5.507812 17.046875 -6.15625 C 15.410156 -6.8125 14 -7.691406 12.8125 -8.796875 C 11.625 -9.898438 10.675781 -11.207031 9.96875 -12.71875 C 9.269531 -14.238281 8.921875 -15.832031 8.921875 -17.5 L 8.921875 -39.8125 L 10.65625 -39.8125 L 10.65625 -17.5 C 10.65625 -15.59375 11.171875 -13.828125 12.203125 -12.203125 C 13.234375 -10.578125 14.632812 -9.289062 16.40625 -8.34375 C 18.175781 -7.394531 20.101562 -6.921875 22.1875 -6.921875 C 24.269531 -6.921875 26.195312 -7.394531 27.96875 -8.34375 C 29.738281 -9.289062 31.140625 -10.578125 32.171875 -12.203125 C 33.210938 -13.828125 33.734375 -15.59375 33.734375 -17.5 Z M 37.1875 -17.5 L 37.1875 -39.8125 L 38.921875 -39.8125 L 38.921875 -17.5 C 38.921875 -15.363281 38.472656 -13.320312 37.578125 -11.375 C 36.691406 -9.4375 35.503906 -7.757812 34.015625 -6.34375 C 32.523438 -4.9375 30.742188 -3.816406 28.671875 -2.984375 C 26.609375 -2.148438 24.445312 -1.734375 22.1875 -1.734375 C 19.925781 -1.734375 17.757812 -2.148438 15.6875 -2.984375 C 13.625 -3.816406 11.847656 -4.9375 10.359375 -6.34375 C 8.867188 -7.757812 7.675781 -9.4375 6.78125 -11.375 C 5.894531 -13.320312 5.453125 -15.363281 5.453125 -17.5 L 5.453125 -39.8125 L 7.1875 -39.8125 L 7.1875 -17.5 C 7.1875 -14.96875 7.859375 -12.625 9.203125 -10.46875 C 10.554688 -8.3125 12.378906 -6.601562 14.671875 -5.34375 C 16.972656 -4.09375 19.476562 -3.46875 22.1875 -3.46875 C 24.894531 -3.46875 27.398438 -4.09375 29.703125 -5.34375 C 32.003906 -6.601562 33.828125 -8.3125 35.171875 -10.46875 C 36.515625 -12.625 37.1875 -14.96875 37.1875 -17.5 Z M 40.65625 -17.5 L 40.65625 -39.8125 L 42.390625 -39.8125 L 42.390625 -17.5 C 42.390625 -14.039062 41.484375 -10.832031 39.671875 -7.875 C 37.859375 -4.914062 35.398438 -2.570312 32.296875 -0.84375 C 29.191406 0.875 25.820312 1.734375 22.1875 1.734375 C 18.550781 1.734375 15.179688 0.875 12.078125 -0.84375 C 8.972656 -2.570312 6.515625 -4.914062 4.703125 -7.875 C 2.898438 -10.832031 2 -14.039062 2 -17.5 L 2 -39.8125 L 3.71875 -39.8125 L 3.71875 -17.5 C 3.71875 -15.144531 4.207031 -12.882812 5.1875 -10.71875 C 6.164062 -8.550781 7.476562 -6.6875 9.125 -5.125 C 10.78125 -3.5625 12.75 -2.316406 15.03125 -1.390625 C 17.320312 -0.460938 19.707031 0 22.1875 0 C 24.675781 0 27.0625 -0.460938 29.34375 -1.390625 C 31.625 -2.316406 33.585938 -3.5625 35.234375 -5.125 C 36.890625 -6.6875 38.207031 -8.550781 39.1875 -10.71875 C 40.164062 -12.882812 40.65625 -15.144531 40.65625 -17.5 Z M 40.65625 -17.5 "/></g></g></g><g fill="#37414f" fill-opacity="1"><g transform="translate(234.16828, 343.020285)"><g><path d="M 15.3125 -19.8125 L 25.75 -19.8125 C 27.332031 -19.8125 28.671875 -20.320312 29.765625 -21.34375 C 30.867188 -22.375 31.421875 -23.832031 31.421875 -25.71875 C 31.421875 -27.113281 30.84375 -28.367188 29.6875 -29.484375 C 28.53125 -30.597656 27.21875 -31.15625 25.75 -31.15625 L 10.890625 -31.15625 L 10.890625 0 L 9.15625 0 L 9.15625 -32.890625 L 25.75 -32.890625 C 27.707031 -32.890625 29.429688 -32.160156 30.921875 -30.703125 C 32.410156 -29.253906 33.15625 -27.59375 33.15625 -25.71875 C 33.15625 -23.414062 32.429688 -21.566406 30.984375 -20.171875 C 29.546875 -18.773438 27.800781 -18.078125 25.75 -18.078125 L 15.3125 -18.078125 Z M 15.3125 -16.34375 L 25.75 -16.34375 C 28.25 -16.34375 30.394531 -17.21875 32.1875 -18.96875 C 33.976562 -20.726562 34.875 -22.976562 34.875 -25.71875 C 34.875 -28.070312 33.957031 -30.144531 32.125 -31.9375 C 30.289062 -33.726562 28.164062 -34.625 25.75 -34.625 L 7.421875 -34.625 L 7.421875 0 L 5.703125 0 L 5.703125 -36.34375 L 25.75 -36.34375 C 27.65625 -36.34375 29.441406 -35.851562 31.109375 -34.875 C 32.785156 -33.90625 34.117188 -32.597656 35.109375 -30.953125 C 36.109375 -29.304688 36.609375 -27.5625 36.609375 -25.71875 C 36.609375 -22.5625 35.535156 -19.921875 33.390625 -17.796875 C 31.253906 -15.671875 28.707031 -14.609375 25.75 -14.609375 L 15.3125 -14.609375 Z M 15.3125 -12.890625 L 25.75 -12.890625 C 27.988281 -12.890625 30.066406 -13.441406 31.984375 -14.546875 C 33.910156 -15.648438 35.453125 -17.191406 36.609375 -19.171875 C 37.765625 -21.148438 38.34375 -23.332031 38.34375 -25.71875 C 38.34375 -27.882812 37.769531 -29.914062 36.625 -31.8125 C 35.476562 -33.71875 33.9375 -35.238281 32 -36.375 C 30.0625 -37.507812 27.976562 -38.078125 25.75 -38.078125 L 3.96875 -38.078125 L 3.96875 0 L 2.234375 0 L 2.234375 -39.8125 L 25.75 -39.8125 C 28.257812 -39.8125 30.617188 -39.164062 32.828125 -37.875 C 35.046875 -36.582031 36.804688 -34.847656 38.109375 -32.671875 C 39.421875 -30.503906 40.078125 -28.1875 40.078125 -25.71875 C 40.078125 -22.863281 39.460938 -20.351562 38.234375 -18.1875 C 37.003906 -16.03125 35.34375 -14.34375 33.25 -13.125 L 37.71875 0 L 35.890625 0 L 31.609375 -12.3125 C 30.972656 -12.050781 30.484375 -11.875 30.140625 -11.78125 L 34.15625 0 L 32.328125 0 L 28.421875 -11.375 C 28.273438 -11.34375 27.757812 -11.285156 26.875 -11.203125 L 30.609375 0 L 28.78125 0 L 25.09375 -11.15625 L 23.53125 -11.15625 L 27.046875 0 L 25.21875 0 L 21.6875 -11.15625 L 15.3125 -11.15625 Z M 14.359375 0 L 12.625 0 L 12.625 -29.421875 L 25.75 -29.421875 C 26.820312 -29.421875 27.742188 -29.054688 28.515625 -28.328125 C 29.296875 -27.597656 29.6875 -26.726562 29.6875 -25.71875 C 29.6875 -22.9375 28.375 -21.546875 25.75 -21.546875 L 15.3125 -21.546875 L 15.3125 -23.265625 L 25.75 -23.265625 C 26.4375 -23.265625 26.972656 -23.445312 27.359375 -23.8125 C 27.753906 -24.175781 27.953125 -24.8125 27.953125 -25.71875 C 27.953125 -26.28125 27.738281 -26.75 27.3125 -27.125 C 26.894531 -27.5 26.375 -27.6875 25.75 -27.6875 L 14.359375 -27.6875 Z M 14.359375 0 "/></g></g></g></svg>